<svg width="1024" height="400" viewBox="0 0 1024 400" fill="none" xmlns="http://www.w3.org/2000/svg">
<rect width="1024" height="400" fill="white"/>
<rect width="1024" height="400" fill="url(#paint0_linear)"/>
<ellipse cx="172.5" cy="178.5" rx="143.5" ry="132.5" fill="#FF9900" fill-opacity="0.1"/>
<path d="M104.484 253.764H93.5639L91.2119 259H89.0559L98.0159 239.4H100.06L109.02 259H106.836L104.484 253.764ZM103.728 252.084L99.0239 241.556L94.3199 252.084H103.728ZM125.274 259.14C123.818 259.14 122.512 258.823 121.354 258.188C120.216 257.553 119.32 256.667 118.666 255.528C118.013 254.371 117.686 253.073 117.686 251.636C117.686 250.199 118.013 248.911 118.666 247.772C119.32 246.633 120.216 245.747 121.354 245.112C122.512 244.477 123.818 244.16 125.274 244.16C126.544 244.16 127.673 244.412 128.662 244.916C129.67 245.401 130.464 246.12 131.042 247.072L129.558 248.08C129.073 247.352 128.457 246.811 127.71 246.456C126.964 246.083 126.152 245.896 125.274 245.896C124.21 245.896 123.249 246.139 122.39 246.624C121.55 247.091 120.888 247.763 120.402 248.64C119.936 249.517 119.702 250.516 119.702 251.636C119.702 252.775 119.936 253.783 120.402 254.66C120.888 255.519 121.55 256.191 122.39 256.676C123.249 257.143 124.21 257.376 125.274 257.376C126.152 257.376 126.964 257.199 127.71 256.844C128.457 256.489 129.073 255.948 129.558 255.22L131.042 256.228C130.464 257.18 129.67 257.908 128.662 258.412C127.654 258.897 126.525 259.14 125.274 259.14ZM140.722 259.14C139.303 259.14 138.024 258.823 136.886 258.188C135.747 257.535 134.851 256.639 134.198 255.5C133.544 254.361 133.218 253.073 133.218 251.636C133.218 250.199 133.544 248.911 134.198 247.772C134.851 246.633 135.747 245.747 136.886 245.112C138.024 244.477 139.303 244.16 140.722 244.16C142.14 244.16 143.419 244.477 144.558 245.112C145.696 245.747 146.583 246.633 147.218 247.772C147.871 248.911 148.198 250.199 148.198 251.636C148.198 253.073 147.871 254.361 147.218 255.5C146.583 256.639 145.696 257.535 144.558 258.188C143.419 258.823 142.14 259.14 140.722 259.14ZM140.722 257.376C141.767 257.376 142.7 257.143 143.522 256.676C144.362 256.191 145.015 255.509 145.482 254.632C145.948 253.755 146.182 252.756 146.182 251.636C146.182 250.516 145.948 249.517 145.482 248.64C145.015 247.763 144.362 247.091 143.522 246.624C142.7 246.139 141.767 245.896 140.722 245.896C139.676 245.896 138.734 246.139 137.894 246.624C137.072 247.091 136.419 247.763 135.934 248.64C135.467 249.517 135.234 250.516 135.234 251.636C135.234 252.756 135.467 253.755 135.934 254.632C136.419 255.509 137.072 256.191 137.894 256.676C138.734 257.143 139.676 257.376 140.722 257.376ZM152.256 238.224H154.244V259H152.256V238.224ZM159.776 238.224H161.764V259H159.776V238.224ZM180.119 252.252H167.799C167.911 253.783 168.499 255.024 169.563 255.976C170.627 256.909 171.971 257.376 173.595 257.376C174.51 257.376 175.35 257.217 176.115 256.9C176.881 256.564 177.543 256.079 178.103 255.444L179.223 256.732C178.57 257.516 177.749 258.113 176.759 258.524C175.789 258.935 174.715 259.14 173.539 259.14C172.027 259.14 170.683 258.823 169.507 258.188C168.35 257.535 167.445 256.639 166.791 255.5C166.138 254.361 165.811 253.073 165.811 251.636C165.811 250.199 166.119 248.911 166.735 247.772C167.37 246.633 168.229 245.747 169.311 245.112C170.413 244.477 171.645 244.16 173.007 244.16C174.37 244.16 175.593 244.477 176.675 245.112C177.758 245.747 178.607 246.633 179.223 247.772C179.839 248.892 180.147 250.18 180.147 251.636L180.119 252.252ZM173.007 245.868C171.589 245.868 170.394 246.325 169.423 247.24C168.471 248.136 167.93 249.312 167.799 250.768H178.243C178.113 249.312 177.562 248.136 176.591 247.24C175.639 246.325 174.445 245.868 173.007 245.868ZM190.298 259.14C188.842 259.14 187.535 258.823 186.378 258.188C185.239 257.553 184.343 256.667 183.69 255.528C183.036 254.371 182.71 253.073 182.71 251.636C182.71 250.199 183.036 248.911 183.69 247.772C184.343 246.633 185.239 245.747 186.378 245.112C187.535 244.477 188.842 244.16 190.298 244.16C191.567 244.16 192.697 244.412 193.686 244.916C194.694 245.401 195.487 246.12 196.066 247.072L194.582 248.08C194.097 247.352 193.481 246.811 192.734 246.456C191.987 246.083 191.175 245.896 190.298 245.896C189.234 245.896 188.272 246.139 187.414 246.624C186.574 247.091 185.911 247.763 185.426 248.64C184.959 249.517 184.726 250.516 184.726 251.636C184.726 252.775 184.959 253.783 185.426 254.66C185.911 255.519 186.574 256.191 187.414 256.676C188.272 257.143 189.234 257.376 190.298 257.376C191.175 257.376 191.987 257.199 192.734 256.844C193.481 256.489 194.097 255.948 194.582 255.22L196.066 256.228C195.487 257.18 194.694 257.908 193.686 258.412C192.678 258.897 191.549 259.14 190.298 259.14ZM207.891 258.104C207.518 258.44 207.051 258.701 206.491 258.888C205.95 259.056 205.381 259.14 204.783 259.14C203.402 259.14 202.338 258.767 201.591 258.02C200.845 257.273 200.471 256.219 200.471 254.856V245.952H197.839V244.272H200.471V241.052H202.459V244.272H206.939V245.952H202.459V254.744C202.459 255.621 202.674 256.293 203.103 256.76C203.551 257.208 204.186 257.432 205.007 257.432C205.418 257.432 205.81 257.367 206.183 257.236C206.575 257.105 206.911 256.919 207.191 256.676L207.891 258.104ZM211.51 244.272H213.498V259H211.51V244.272ZM212.518 241.052C212.108 241.052 211.762 240.912 211.482 240.632C211.202 240.352 211.062 240.016 211.062 239.624C211.062 239.251 211.202 238.924 211.482 238.644C211.762 238.364 212.108 238.224 212.518 238.224C212.929 238.224 213.274 238.364 213.554 238.644C213.834 238.905 213.974 239.223 213.974 239.596C213.974 240.007 213.834 240.352 213.554 240.632C213.274 240.912 212.929 241.052 212.518 241.052ZM225.05 259.14C223.631 259.14 222.352 258.823 221.214 258.188C220.075 257.535 219.179 256.639 218.526 255.5C217.872 254.361 217.546 253.073 217.546 251.636C217.546 250.199 217.872 248.911 218.526 247.772C219.179 246.633 220.075 245.747 221.214 245.112C222.352 244.477 223.631 244.16 225.05 244.16C226.468 244.16 227.747 244.477 228.886 245.112C230.024 245.747 230.911 246.633 231.546 247.772C232.199 248.911 232.526 250.199 232.526 251.636C232.526 253.073 232.199 254.361 231.546 255.5C230.911 256.639 230.024 257.535 228.886 258.188C227.747 258.823 226.468 259.14 225.05 259.14ZM225.05 257.376C226.095 257.376 227.028 257.143 227.85 256.676C228.69 256.191 229.343 255.509 229.81 254.632C230.276 253.755 230.51 252.756 230.51 251.636C230.51 250.516 230.276 249.517 229.81 248.64C229.343 247.763 228.69 247.091 227.85 246.624C227.028 246.139 226.095 245.896 225.05 245.896C224.004 245.896 223.062 246.139 222.222 246.624C221.4 247.091 220.747 247.763 220.262 248.64C219.795 249.517 219.562 250.516 219.562 251.636C219.562 252.756 219.795 253.755 220.262 254.632C220.747 255.509 221.4 256.191 222.222 256.676C223.062 257.143 224.004 257.376 225.05 257.376ZM244.089 244.16C245.937 244.16 247.402 244.701 248.485 245.784C249.586 246.848 250.137 248.407 250.137 250.46V259H248.149V250.656C248.149 249.125 247.766 247.959 247.001 247.156C246.235 246.353 245.143 245.952 243.725 245.952C242.138 245.952 240.878 246.428 239.945 247.38C239.03 248.313 238.573 249.611 238.573 251.272V259H236.585V244.272H238.489V246.988C239.03 246.092 239.777 245.401 240.729 244.916C241.699 244.412 242.819 244.16 244.089 244.16ZM268.882 259.14C267.463 259.14 266.185 258.823 265.046 258.188C263.907 257.535 263.011 256.639 262.358 255.5C261.705 254.361 261.378 253.073 261.378 251.636C261.378 250.199 261.705 248.911 262.358 247.772C263.011 246.633 263.907 245.747 265.046 245.112C266.185 244.477 267.463 244.16 268.882 244.16C270.301 244.16 271.579 244.477 272.718 245.112C273.857 245.747 274.743 246.633 275.378 247.772C276.031 248.911 276.358 250.199 276.358 251.636C276.358 253.073 276.031 254.361 275.378 255.5C274.743 256.639 273.857 257.535 272.718 258.188C271.579 258.823 270.301 259.14 268.882 259.14ZM268.882 257.376C269.927 257.376 270.861 257.143 271.682 256.676C272.522 256.191 273.175 255.509 273.642 254.632C274.109 253.755 274.342 252.756 274.342 251.636C274.342 250.516 274.109 249.517 273.642 248.64C273.175 247.763 272.522 247.091 271.682 246.624C270.861 246.139 269.927 245.896 268.882 245.896C267.837 245.896 266.894 246.139 266.054 246.624C265.233 247.091 264.579 247.763 264.094 248.64C263.627 249.517 263.394 250.516 263.394 251.636C263.394 252.756 263.627 253.755 264.094 254.632C264.579 255.509 265.233 256.191 266.054 256.676C266.894 257.143 267.837 257.376 268.882 257.376ZM285.289 239.764C284.43 239.764 283.777 239.997 283.329 240.464C282.899 240.931 282.685 241.621 282.685 242.536V244.272H287.221V245.952H282.741V259H280.753V245.952H278.121V244.272H280.753V242.452C280.753 241.108 281.135 240.044 281.901 239.26C282.685 238.476 283.786 238.084 285.205 238.084C285.765 238.084 286.306 238.168 286.829 238.336C287.351 238.485 287.79 238.709 288.145 239.008L287.473 240.492C286.894 240.007 286.166 239.764 285.289 239.764ZM302.385 244.16C304.308 244.16 305.782 244.645 306.809 245.616C307.836 246.568 308.349 247.987 308.349 249.872V259H306.445V256.704C305.997 257.469 305.334 258.067 304.457 258.496C303.598 258.925 302.572 259.14 301.377 259.14C299.734 259.14 298.428 258.748 297.457 257.964C296.486 257.18 296.001 256.144 296.001 254.856C296.001 253.605 296.449 252.597 297.345 251.832C298.26 251.067 299.706 250.684 301.685 250.684H306.361V249.788C306.361 248.519 306.006 247.557 305.297 246.904C304.588 246.232 303.552 245.896 302.189 245.896C301.256 245.896 300.36 246.055 299.501 246.372C298.642 246.671 297.905 247.091 297.289 247.632L296.393 246.148C297.14 245.513 298.036 245.028 299.081 244.692C300.126 244.337 301.228 244.16 302.385 244.16ZM301.685 257.572C302.805 257.572 303.766 257.32 304.569 256.816C305.372 256.293 305.969 255.547 306.361 254.576V252.168H301.741C299.221 252.168 297.961 253.045 297.961 254.8C297.961 255.659 298.288 256.34 298.941 256.844C299.594 257.329 300.509 257.572 301.685 257.572ZM321.253 244.16C323.101 244.16 324.566 244.701 325.649 245.784C326.75 246.848 327.301 248.407 327.301 250.46V259H325.313V250.656C325.313 249.125 324.93 247.959 324.165 247.156C323.399 246.353 322.307 245.952 320.889 245.952C319.302 245.952 318.042 246.428 317.109 247.38C316.194 248.313 315.737 249.611 315.737 251.272V259H313.749V244.272H315.653V246.988C316.194 246.092 316.941 245.401 317.893 244.916C318.863 244.412 319.983 244.16 321.253 244.16ZM332.698 244.272H334.686V259H332.698V244.272ZM333.706 241.052C333.295 241.052 332.95 240.912 332.67 240.632C332.39 240.352 332.25 240.016 332.25 239.624C332.25 239.251 332.39 238.924 332.67 238.644C332.95 238.364 333.295 238.224 333.706 238.224C334.116 238.224 334.462 238.364 334.742 238.644C335.022 238.905 335.162 239.223 335.162 239.596C335.162 240.007 335.022 240.352 334.742 240.632C334.462 240.912 334.116 241.052 333.706 241.052ZM358.585 244.16C360.433 244.16 361.88 244.692 362.925 245.756C363.989 246.82 364.521 248.388 364.521 250.46V259H362.533V250.656C362.533 249.125 362.16 247.959 361.413 247.156C360.685 246.353 359.649 245.952 358.305 245.952C356.775 245.952 355.571 246.428 354.693 247.38C353.816 248.313 353.377 249.611 353.377 251.272V259H351.389V250.656C351.389 249.125 351.016 247.959 350.269 247.156C349.541 246.353 348.496 245.952 347.133 245.952C345.621 245.952 344.417 246.428 343.521 247.38C342.644 248.313 342.205 249.611 342.205 251.272V259H340.217V244.272H342.121V246.96C342.644 246.064 343.372 245.373 344.305 244.888C345.239 244.403 346.312 244.16 347.525 244.16C348.757 244.16 349.821 244.421 350.717 244.944C351.632 245.467 352.313 246.241 352.761 247.268C353.303 246.297 354.077 245.541 355.085 245C356.112 244.44 357.279 244.16 358.585 244.16ZM375.065 244.16C376.987 244.16 378.462 244.645 379.489 245.616C380.515 246.568 381.029 247.987 381.029 249.872V259H379.125V256.704C378.677 257.469 378.014 258.067 377.137 258.496C376.278 258.925 375.251 259.14 374.057 259.14C372.414 259.14 371.107 258.748 370.137 257.964C369.166 257.18 368.681 256.144 368.681 254.856C368.681 253.605 369.129 252.597 370.025 251.832C370.939 251.067 372.386 250.684 374.365 250.684H379.041V249.788C379.041 248.519 378.686 247.557 377.977 246.904C377.267 246.232 376.231 245.896 374.869 245.896C373.935 245.896 373.039 246.055 372.181 246.372C371.322 246.671 370.585 247.091 369.969 247.632L369.073 246.148C369.819 245.513 370.715 245.028 371.761 244.692C372.806 244.337 373.907 244.16 375.065 244.16ZM374.365 257.572C375.485 257.572 376.446 257.32 377.249 256.816C378.051 256.293 378.649 255.547 379.041 254.576V252.168H374.421C371.901 252.168 370.641 253.045 370.641 254.8C370.641 255.659 370.967 256.34 371.621 256.844C372.274 257.329 373.189 257.572 374.365 257.572ZM394.184 258.104C393.811 258.44 393.344 258.701 392.784 258.888C392.243 259.056 391.674 259.14 391.076 259.14C389.695 259.14 388.631 258.767 387.884 258.02C387.138 257.273 386.764 256.219 386.764 254.856V245.952H384.132V244.272H386.764V241.052H388.752V244.272H393.232V245.952H388.752V254.744C388.752 255.621 388.967 256.293 389.396 256.76C389.844 257.208 390.479 257.432 391.3 257.432C391.711 257.432 392.103 257.367 392.476 257.236C392.868 257.105 393.204 256.919 393.484 256.676L394.184 258.104ZM410.108 252.252H397.788C397.9 253.783 398.488 255.024 399.552 255.976C400.616 256.909 401.96 257.376 403.584 257.376C404.498 257.376 405.338 257.217 406.104 256.9C406.869 256.564 407.532 256.079 408.092 255.444L409.212 256.732C408.558 257.516 407.737 258.113 406.748 258.524C405.777 258.935 404.704 259.14 403.528 259.14C402.016 259.14 400.672 258.823 399.496 258.188C398.338 257.535 397.433 256.639 396.78 255.5C396.126 254.361 395.8 253.073 395.8 251.636C395.8 250.199 396.108 248.911 396.724 247.772C397.358 246.633 398.217 245.747 399.3 245.112C400.401 244.477 401.633 244.16 402.996 244.16C404.358 244.16 405.581 244.477 406.664 245.112C407.746 245.747 408.596 246.633 409.212 247.772C409.828 248.892 410.136 250.18 410.136 251.636L410.108 252.252ZM402.996 245.868C401.577 245.868 400.382 246.325 399.412 247.24C398.46 248.136 397.918 249.312 397.788 250.768H408.232C408.101 249.312 407.55 248.136 406.58 247.24C405.628 246.325 404.433 245.868 402.996 245.868ZM427.622 238.224V259H425.718V256.088C425.121 257.077 424.327 257.833 423.338 258.356C422.367 258.879 421.266 259.14 420.034 259.14C418.653 259.14 417.402 258.823 416.282 258.188C415.162 257.553 414.285 256.667 413.65 255.528C413.015 254.389 412.698 253.092 412.698 251.636C412.698 250.18 413.015 248.883 413.65 247.744C414.285 246.605 415.162 245.728 416.282 245.112C417.402 244.477 418.653 244.16 420.034 244.16C421.229 244.16 422.302 244.412 423.254 244.916C424.225 245.401 425.018 246.12 425.634 247.072V238.224H427.622ZM420.202 257.376C421.229 257.376 422.153 257.143 422.974 256.676C423.814 256.191 424.467 255.509 424.934 254.632C425.419 253.755 425.662 252.756 425.662 251.636C425.662 250.516 425.419 249.517 424.934 248.64C424.467 247.763 423.814 247.091 422.974 246.624C422.153 246.139 421.229 245.896 420.202 245.896C419.157 245.896 418.214 246.139 417.374 246.624C416.553 247.091 415.899 247.763 415.414 248.64C414.947 249.517 414.714 250.516 414.714 251.636C414.714 252.756 414.947 253.755 415.414 254.632C415.899 255.509 416.553 256.191 417.374 256.676C418.214 257.143 419.157 257.376 420.202 257.376ZM446.591 259.14C445.135 259.14 443.828 258.823 442.671 258.188C441.532 257.553 440.636 256.667 439.983 255.528C439.33 254.371 439.003 253.073 439.003 251.636C439.003 250.199 439.33 248.911 439.983 247.772C440.636 246.633 441.532 245.747 442.671 245.112C443.828 244.477 445.135 244.16 446.591 244.16C447.86 244.16 448.99 244.412 449.979 244.916C450.987 245.401 451.78 246.12 452.359 247.072L450.875 248.08C450.39 247.352 449.774 246.811 449.027 246.456C448.28 246.083 447.468 245.896 446.591 245.896C445.527 245.896 444.566 246.139 443.707 246.624C442.867 247.091 442.204 247.763 441.719 248.64C441.252 249.517 441.019 250.516 441.019 251.636C441.019 252.775 441.252 253.783 441.719 254.66C442.204 255.519 442.867 256.191 443.707 256.676C444.566 257.143 445.527 257.376 446.591 257.376C447.468 257.376 448.28 257.199 449.027 256.844C449.774 256.489 450.39 255.948 450.875 255.22L452.359 256.228C451.78 257.18 450.987 257.908 449.979 258.412C448.971 258.897 447.842 259.14 446.591 259.14ZM462.038 259.14C460.619 259.14 459.341 258.823 458.202 258.188C457.063 257.535 456.167 256.639 455.514 255.5C454.861 254.361 454.534 253.073 454.534 251.636C454.534 250.199 454.861 248.911 455.514 247.772C456.167 246.633 457.063 245.747 458.202 245.112C459.341 244.477 460.619 244.16 462.038 244.16C463.457 244.16 464.735 244.477 465.874 245.112C467.013 245.747 467.899 246.633 468.534 247.772C469.187 248.911 469.514 250.199 469.514 251.636C469.514 253.073 469.187 254.361 468.534 255.5C467.899 256.639 467.013 257.535 465.874 258.188C464.735 258.823 463.457 259.14 462.038 259.14ZM462.038 257.376C463.083 257.376 464.017 257.143 464.838 256.676C465.678 256.191 466.331 255.509 466.798 254.632C467.265 253.755 467.498 252.756 467.498 251.636C467.498 250.516 467.265 249.517 466.798 248.64C466.331 247.763 465.678 247.091 464.838 246.624C464.017 246.139 463.083 245.896 462.038 245.896C460.993 245.896 460.05 246.139 459.21 246.624C458.389 247.091 457.735 247.763 457.25 248.64C456.783 249.517 456.55 250.516 456.55 251.636C456.55 252.756 456.783 253.755 457.25 254.632C457.735 255.509 458.389 256.191 459.21 256.676C460.05 257.143 460.993 257.376 462.038 257.376ZM491.941 244.16C493.789 244.16 495.235 244.692 496.281 245.756C497.345 246.82 497.877 248.388 497.877 250.46V259H495.889V250.656C495.889 249.125 495.515 247.959 494.769 247.156C494.041 246.353 493.005 245.952 491.661 245.952C490.13 245.952 488.926 246.428 488.049 247.38C487.171 248.313 486.733 249.611 486.733 251.272V259H484.745V250.656C484.745 249.125 484.371 247.959 483.625 247.156C482.897 246.353 481.851 245.952 480.489 245.952C478.977 245.952 477.773 246.428 476.877 247.38C475.999 248.313 475.561 249.611 475.561 251.272V259H473.573V244.272H475.477V246.96C475.999 246.064 476.727 245.373 477.661 244.888C478.594 244.403 479.667 244.16 480.881 244.16C482.113 244.16 483.177 244.421 484.073 244.944C484.987 245.467 485.669 246.241 486.117 247.268C486.658 246.297 487.433 245.541 488.441 245C489.467 244.44 490.634 244.16 491.941 244.16ZM510.856 244.16C512.237 244.16 513.488 244.477 514.608 245.112C515.728 245.728 516.605 246.605 517.24 247.744C517.875 248.883 518.192 250.18 518.192 251.636C518.192 253.111 517.875 254.417 517.24 255.556C516.605 256.695 515.728 257.581 514.608 258.216C513.507 258.832 512.256 259.14 510.856 259.14C509.661 259.14 508.579 258.897 507.608 258.412C506.656 257.908 505.872 257.18 505.256 256.228V264.432H503.268V244.272H505.172V247.184C505.769 246.213 506.553 245.467 507.524 244.944C508.513 244.421 509.624 244.16 510.856 244.16ZM510.716 257.376C511.743 257.376 512.676 257.143 513.516 256.676C514.356 256.191 515.009 255.509 515.476 254.632C515.961 253.755 516.204 252.756 516.204 251.636C516.204 250.516 515.961 249.527 515.476 248.668C515.009 247.791 514.356 247.109 513.516 246.624C512.676 246.139 511.743 245.896 510.716 245.896C509.671 245.896 508.728 246.139 507.888 246.624C507.067 247.109 506.413 247.791 505.928 248.668C505.461 249.527 505.228 250.516 505.228 251.636C505.228 252.756 505.461 253.755 505.928 254.632C506.413 255.509 507.067 256.191 507.888 256.676C508.728 257.143 509.671 257.376 510.716 257.376ZM528.265 259.14C526.846 259.14 525.567 258.823 524.429 258.188C523.29 257.535 522.394 256.639 521.741 255.5C521.087 254.361 520.761 253.073 520.761 251.636C520.761 250.199 521.087 248.911 521.741 247.772C522.394 246.633 523.29 245.747 524.429 245.112C525.567 244.477 526.846 244.16 528.265 244.16C529.683 244.16 530.962 244.477 532.101 245.112C533.239 245.747 534.126 246.633 534.761 247.772C535.414 248.911 535.741 250.199 535.741 251.636C535.741 253.073 535.414 254.361 534.761 255.5C534.126 256.639 533.239 257.535 532.101 258.188C530.962 258.823 529.683 259.14 528.265 259.14ZM528.265 257.376C529.31 257.376 530.243 257.143 531.065 256.676C531.905 256.191 532.558 255.509 533.025 254.632C533.491 253.755 533.725 252.756 533.725 251.636C533.725 250.516 533.491 249.517 533.025 248.64C532.558 247.763 531.905 247.091 531.065 246.624C530.243 246.139 529.31 245.896 528.265 245.896C527.219 245.896 526.277 246.139 525.437 246.624C524.615 247.091 523.962 247.763 523.477 248.64C523.01 249.517 522.777 250.516 522.777 251.636C522.777 252.756 523.01 253.755 523.477 254.632C523.962 255.509 524.615 256.191 525.437 256.676C526.277 257.143 527.219 257.376 528.265 257.376ZM547.303 244.16C549.151 244.16 550.617 244.701 551.699 245.784C552.801 246.848 553.351 248.407 553.351 250.46V259H551.363V250.656C551.363 249.125 550.981 247.959 550.215 247.156C549.45 246.353 548.358 245.952 546.939 245.952C545.353 245.952 544.093 246.428 543.159 247.38C542.245 248.313 541.787 249.611 541.787 251.272V259H539.799V244.272H541.703V246.988C542.245 246.092 542.991 245.401 543.943 244.916C544.914 244.412 546.034 244.16 547.303 244.16ZM571.627 252.252H559.307C559.419 253.783 560.007 255.024 561.071 255.976C562.135 256.909 563.479 257.376 565.103 257.376C566.018 257.376 566.858 257.217 567.623 256.9C568.389 256.564 569.051 256.079 569.611 255.444L570.731 256.732C570.078 257.516 569.257 258.113 568.267 258.524C567.297 258.935 566.223 259.14 565.047 259.14C563.535 259.14 562.191 258.823 561.015 258.188C559.858 257.535 558.953 256.639 558.299 255.5C557.646 254.361 557.319 253.073 557.319 251.636C557.319 250.199 557.627 248.911 558.243 247.772C558.878 246.633 559.737 245.747 560.819 245.112C561.921 244.477 563.153 244.16 564.515 244.16C565.878 244.16 567.101 244.477 568.183 245.112C569.266 245.747 570.115 246.633 570.731 247.772C571.347 248.892 571.655 250.18 571.655 251.636L571.627 252.252ZM564.515 245.868C563.097 245.868 561.902 246.325 560.931 247.24C559.979 248.136 559.438 249.312 559.307 250.768H569.751C569.621 249.312 569.07 248.136 568.099 247.24C567.147 246.325 565.953 245.868 564.515 245.868ZM583.206 244.16C585.054 244.16 586.519 244.701 587.602 245.784C588.703 246.848 589.254 248.407 589.254 250.46V259H587.266V250.656C587.266 249.125 586.883 247.959 586.118 247.156C585.352 246.353 584.26 245.952 582.842 245.952C581.255 245.952 579.995 246.428 579.062 247.38C578.147 248.313 577.69 249.611 577.69 251.272V259H575.702V244.272H577.606V246.988C578.147 246.092 578.894 245.401 579.846 244.916C580.816 244.412 581.936 244.16 583.206 244.16ZM602.407 258.104C602.034 258.44 601.567 258.701 601.007 258.888C600.466 259.056 599.896 259.14 599.299 259.14C597.918 259.14 596.854 258.767 596.107 258.02C595.36 257.273 594.987 256.219 594.987 254.856V245.952H592.355V244.272H594.987V241.052H596.975V244.272H601.455V245.952H596.975V254.744C596.975 255.621 597.19 256.293 597.619 256.76C598.067 257.208 598.702 257.432 599.523 257.432C599.934 257.432 600.326 257.367 600.699 257.236C601.091 257.105 601.427 256.919 601.707 256.676L602.407 258.104ZM609.974 259.14C608.779 259.14 607.631 258.972 606.53 258.636C605.447 258.281 604.598 257.843 603.982 257.32L604.878 255.752C605.494 256.237 606.269 256.639 607.202 256.956C608.135 257.255 609.106 257.404 610.114 257.404C611.458 257.404 612.447 257.199 613.082 256.788C613.735 256.359 614.062 255.761 614.062 254.996C614.062 254.455 613.885 254.035 613.53 253.736C613.175 253.419 612.727 253.185 612.186 253.036C611.645 252.868 610.926 252.709 610.03 252.56C608.835 252.336 607.874 252.112 607.146 251.888C606.418 251.645 605.793 251.244 605.27 250.684C604.766 250.124 604.514 249.349 604.514 248.36C604.514 247.128 605.027 246.12 606.054 245.336C607.081 244.552 608.509 244.16 610.338 244.16C611.29 244.16 612.242 244.291 613.194 244.552C614.146 244.795 614.93 245.121 615.546 245.532L614.678 247.128C613.465 246.288 612.018 245.868 610.338 245.868C609.069 245.868 608.107 246.092 607.454 246.54C606.819 246.988 606.502 247.576 606.502 248.304C606.502 248.864 606.679 249.312 607.034 249.648C607.407 249.984 607.865 250.236 608.406 250.404C608.947 250.553 609.694 250.712 610.646 250.88C611.822 251.104 612.765 251.328 613.474 251.552C614.183 251.776 614.79 252.159 615.294 252.7C615.798 253.241 616.05 253.988 616.05 254.94C616.05 256.228 615.509 257.255 614.426 258.02C613.362 258.767 611.878 259.14 609.974 259.14ZM634.641 244.16C636.023 244.16 637.273 244.477 638.393 245.112C639.513 245.728 640.391 246.605 641.025 247.744C641.66 248.883 641.977 250.18 641.977 251.636C641.977 253.092 641.66 254.389 641.025 255.528C640.391 256.667 639.513 257.553 638.393 258.188C637.273 258.823 636.023 259.14 634.641 259.14C633.409 259.14 632.299 258.879 631.309 258.356C630.339 257.833 629.555 257.077 628.957 256.088V259H627.053V238.224H629.041V247.072C629.657 246.12 630.441 245.401 631.393 244.916C632.364 244.412 633.447 244.16 634.641 244.16ZM634.501 257.376C635.528 257.376 636.461 257.143 637.301 256.676C638.141 256.191 638.795 255.509 639.261 254.632C639.747 253.755 639.989 252.756 639.989 251.636C639.989 250.516 639.747 249.517 639.261 248.64C638.795 247.763 638.141 247.091 637.301 246.624C636.461 246.139 635.528 245.896 634.501 245.896C633.456 245.896 632.513 246.139 631.673 246.624C630.852 247.091 630.199 247.763 629.713 248.64C629.247 249.517 629.013 250.516 629.013 251.636C629.013 252.756 629.247 253.755 629.713 254.632C630.199 255.509 630.852 256.191 631.673 256.676C632.513 257.143 633.456 257.376 634.501 257.376ZM659.302 244.272V259H657.398V256.312C656.875 257.208 656.156 257.908 655.242 258.412C654.327 258.897 653.282 259.14 652.106 259.14C650.183 259.14 648.662 258.608 647.542 257.544C646.44 256.461 645.89 254.884 645.89 252.812V244.272H647.878V252.616C647.878 254.165 648.26 255.341 649.026 256.144C649.791 256.947 650.883 257.348 652.302 257.348C653.851 257.348 655.074 256.881 655.97 255.948C656.866 254.996 657.314 253.68 657.314 252V244.272H659.302ZM664.87 244.272H666.858V259H664.87V244.272ZM665.878 241.052C665.467 241.052 665.122 240.912 664.842 240.632C664.562 240.352 664.422 240.016 664.422 239.624C664.422 239.251 664.562 238.924 664.842 238.644C665.122 238.364 665.467 238.224 665.878 238.224C666.288 238.224 666.634 238.364 666.914 238.644C667.194 238.905 667.334 239.223 667.334 239.596C667.334 240.007 667.194 240.352 666.914 240.632C666.634 240.912 666.288 241.052 665.878 241.052ZM672.389 238.224H674.377V259H672.389V238.224ZM687.719 258.104C687.346 258.44 686.879 258.701 686.319 258.888C685.778 259.056 685.209 259.14 684.611 259.14C683.23 259.14 682.166 258.767 681.419 258.02C680.673 257.273 680.299 256.219 680.299 254.856V245.952H677.667V244.272H680.299V241.052H682.287V244.272H686.767V245.952H682.287V254.744C682.287 255.621 682.502 256.293 682.931 256.76C683.379 257.208 684.014 257.432 684.835 257.432C685.246 257.432 685.638 257.367 686.011 257.236C686.403 257.105 686.739 256.919 687.019 256.676L687.719 258.104ZM720.283 244.272L714.711 259H712.835L708.187 246.932L703.539 259H701.663L696.119 244.272H698.023L702.643 256.788L707.375 244.272H709.083L713.787 256.788L718.463 244.272H720.283ZM723.276 244.272H725.264V259H723.276V244.272ZM724.284 241.052C723.873 241.052 723.528 240.912 723.248 240.632C722.968 240.352 722.828 240.016 722.828 239.624C722.828 239.251 722.968 238.924 723.248 238.644C723.528 238.364 723.873 238.224 724.284 238.224C724.695 238.224 725.04 238.364 725.32 238.644C725.6 238.905 725.74 239.223 725.74 239.596C725.74 240.007 725.6 240.352 725.32 240.632C725.04 240.912 724.695 241.052 724.284 241.052ZM738.551 258.104C738.178 258.44 737.711 258.701 737.151 258.888C736.61 259.056 736.041 259.14 735.443 259.14C734.062 259.14 732.998 258.767 732.251 258.02C731.505 257.273 731.131 256.219 731.131 254.856V245.952H728.499V244.272H731.131V241.052H733.119V244.272H737.599V245.952H733.119V254.744C733.119 255.621 733.334 256.293 733.763 256.76C734.211 257.208 734.846 257.432 735.667 257.432C736.078 257.432 736.47 257.367 736.843 257.236C737.235 257.105 737.571 256.919 737.851 256.676L738.551 258.104ZM749.674 244.16C751.522 244.16 752.988 244.701 754.07 245.784C755.172 246.848 755.722 248.407 755.722 250.46V259H753.734V250.656C753.734 249.125 753.352 247.959 752.586 247.156C751.821 246.353 750.729 245.952 749.31 245.952C747.724 245.952 746.464 246.428 745.53 247.38C744.616 248.313 744.158 249.611 744.158 251.272V259H742.17V238.224H744.158V246.848C744.7 245.989 745.446 245.327 746.398 244.86C747.35 244.393 748.442 244.16 749.674 244.16ZM770.352 247.156C770.818 246.167 771.509 245.42 772.424 244.916C773.357 244.412 774.505 244.16 775.868 244.16V246.092L775.392 246.064C773.842 246.064 772.629 246.54 771.752 247.492C770.874 248.444 770.436 249.779 770.436 251.496V259H768.448V244.272H770.352V247.156ZM792.155 252.252H779.835C779.947 253.783 780.535 255.024 781.599 255.976C782.663 256.909 784.007 257.376 785.631 257.376C786.545 257.376 787.385 257.217 788.151 256.9C788.916 256.564 789.579 256.079 790.139 255.444L791.259 256.732C790.605 257.516 789.784 258.113 788.795 258.524C787.824 258.935 786.751 259.14 785.575 259.14C784.063 259.14 782.719 258.823 781.543 258.188C780.385 257.535 779.48 256.639 778.827 255.5C778.173 254.361 777.847 253.073 777.847 251.636C777.847 250.199 778.155 248.911 778.771 247.772C779.405 246.633 780.264 245.747 781.347 245.112C782.448 244.477 783.68 244.16 785.043 244.16C786.405 244.16 787.628 244.477 788.711 245.112C789.793 245.747 790.643 246.633 791.259 247.772C791.875 248.892 792.183 250.18 792.183 251.636L792.155 252.252ZM785.043 245.868C783.624 245.868 782.429 246.325 781.459 247.24C780.507 248.136 779.965 249.312 779.835 250.768H790.279C790.148 249.312 789.597 248.136 788.627 247.24C787.675 246.325 786.48 245.868 785.043 245.868ZM800.971 244.16C802.894 244.16 804.368 244.645 805.395 245.616C806.422 246.568 806.935 247.987 806.935 249.872V259H805.031V256.704C804.583 257.469 803.92 258.067 803.043 258.496C802.184 258.925 801.158 259.14 799.963 259.14C798.32 259.14 797.014 258.748 796.043 257.964C795.072 257.18 794.587 256.144 794.587 254.856C794.587 253.605 795.035 252.597 795.931 251.832C796.846 251.067 798.292 250.684 800.271 250.684H804.947V249.788C804.947 248.519 804.592 247.557 803.883 246.904C803.174 246.232 802.138 245.896 800.775 245.896C799.842 245.896 798.946 246.055 798.087 246.372C797.228 246.671 796.491 247.091 795.875 247.632L794.979 246.148C795.726 245.513 796.622 245.028 797.667 244.692C798.712 244.337 799.814 244.16 800.971 244.16ZM800.271 257.572C801.391 257.572 802.352 257.32 803.155 256.816C803.958 256.293 804.555 255.547 804.947 254.576V252.168H800.327C797.807 252.168 796.547 253.045 796.547 254.8C796.547 255.659 796.874 256.34 797.527 256.844C798.18 257.329 799.095 257.572 800.271 257.572ZM818.493 259.14C817.037 259.14 815.731 258.823 814.573 258.188C813.435 257.553 812.539 256.667 811.885 255.528C811.232 254.371 810.905 253.073 810.905 251.636C810.905 250.199 811.232 248.911 811.885 247.772C812.539 246.633 813.435 245.747 814.573 245.112C815.731 244.477 817.037 244.16 818.493 244.16C819.763 244.16 820.892 244.412 821.881 244.916C822.889 245.401 823.683 246.12 824.261 247.072L822.777 248.08C822.292 247.352 821.676 246.811 820.929 246.456C820.183 246.083 819.371 245.896 818.493 245.896C817.429 245.896 816.468 246.139 815.609 246.624C814.769 247.091 814.107 247.763 813.621 248.64C813.155 249.517 812.921 250.516 812.921 251.636C812.921 252.775 813.155 253.783 813.621 254.66C814.107 255.519 814.769 256.191 815.609 256.676C816.468 257.143 817.429 257.376 818.493 257.376C819.371 257.376 820.183 257.199 820.929 256.844C821.676 256.489 822.292 255.948 822.777 255.22L824.261 256.228C823.683 257.18 822.889 257.908 821.881 258.412C820.873 258.897 819.744 259.14 818.493 259.14ZM836.087 258.104C835.713 258.44 835.247 258.701 834.687 258.888C834.145 259.056 833.576 259.14 832.979 259.14C831.597 259.14 830.533 258.767 829.787 258.02C829.04 257.273 828.667 256.219 828.667 254.856V245.952H826.035V244.272H828.667V241.052H830.655V244.272H835.135V245.952H830.655V254.744C830.655 255.621 830.869 256.293 831.299 256.76C831.747 257.208 832.381 257.432 833.203 257.432C833.613 257.432 834.005 257.367 834.379 257.236C834.771 257.105 835.107 256.919 835.387 256.676L836.087 258.104ZM838.34 250.544H845.676V252.28H838.34V250.544ZM854.072 259.14C852.877 259.14 851.729 258.972 850.628 258.636C849.545 258.281 848.696 257.843 848.08 257.32L848.976 255.752C849.592 256.237 850.366 256.639 851.3 256.956C852.233 257.255 853.204 257.404 854.212 257.404C855.556 257.404 856.545 257.199 857.18 256.788C857.833 256.359 858.16 255.761 858.16 254.996C858.16 254.455 857.982 254.035 857.628 253.736C857.273 253.419 856.825 253.185 856.284 253.036C855.742 252.868 855.024 252.709 854.128 252.56C852.933 252.336 851.972 252.112 851.244 251.888C850.516 251.645 849.89 251.244 849.368 250.684C848.864 250.124 848.612 249.349 848.612 248.36C848.612 247.128 849.125 246.12 850.152 245.336C851.178 244.552 852.606 244.16 854.436 244.16C855.388 244.16 856.34 244.291 857.292 244.552C858.244 244.795 859.028 245.121 859.644 245.532L858.776 247.128C857.562 246.288 856.116 245.868 854.436 245.868C853.166 245.868 852.205 246.092 851.552 246.54C850.917 246.988 850.6 247.576 850.6 248.304C850.6 248.864 850.777 249.312 851.132 249.648C851.505 249.984 851.962 250.236 852.504 250.404C853.045 250.553 853.792 250.712 854.744 250.88C855.92 251.104 856.862 251.328 857.572 251.552C858.281 251.776 858.888 252.159 859.392 252.7C859.896 253.241 860.148 253.988 860.148 254.94C860.148 256.228 859.606 257.255 858.524 258.02C857.46 258.767 855.976 259.14 854.072 259.14ZM871.411 244.16C872.792 244.16 874.043 244.477 875.163 245.112C876.283 245.728 877.16 246.605 877.795 247.744C878.429 248.883 878.747 250.18 878.747 251.636C878.747 253.111 878.429 254.417 877.795 255.556C877.16 256.695 876.283 257.581 875.163 258.216C874.061 258.832 872.811 259.14 871.411 259.14C870.216 259.14 869.133 258.897 868.163 258.412C867.211 257.908 866.427 257.18 865.811 256.228V264.432H863.823V244.272H865.727V247.184C866.324 246.213 867.108 245.467 868.079 244.944C869.068 244.421 870.179 244.16 871.411 244.16ZM871.271 257.376C872.297 257.376 873.231 257.143 874.071 256.676C874.911 256.191 875.564 255.509 876.031 254.632C876.516 253.755 876.759 252.756 876.759 251.636C876.759 250.516 876.516 249.527 876.031 248.668C875.564 247.791 874.911 247.109 874.071 246.624C873.231 246.139 872.297 245.896 871.271 245.896C870.225 245.896 869.283 246.139 868.443 246.624C867.621 247.109 866.968 247.791 866.483 248.668C866.016 249.527 865.783 250.516 865.783 251.636C865.783 252.756 866.016 253.755 866.483 254.632C866.968 255.509 867.621 256.191 868.443 256.676C869.283 257.143 870.225 257.376 871.271 257.376ZM884.703 247.156C885.17 246.167 885.861 245.42 886.775 244.916C887.709 244.412 888.857 244.16 890.219 244.16V246.092L889.743 246.064C888.194 246.064 886.981 246.54 886.103 247.492C885.226 248.444 884.787 249.779 884.787 251.496V259H882.799V244.272H884.703V247.156ZM893.819 244.272H895.807V259H893.819V244.272ZM894.827 241.052C894.416 241.052 894.071 240.912 893.791 240.632C893.511 240.352 893.371 240.016 893.371 239.624C893.371 239.251 893.511 238.924 893.791 238.644C894.071 238.364 894.416 238.224 894.827 238.224C895.238 238.224 895.583 238.364 895.863 238.644C896.143 238.905 896.283 239.223 896.283 239.596C896.283 240.007 896.143 240.352 895.863 240.632C895.583 240.912 895.238 241.052 894.827 241.052ZM908.842 244.16C910.69 244.16 912.156 244.701 913.238 245.784C914.34 246.848 914.89 248.407 914.89 250.46V259H912.902V250.656C912.902 249.125 912.52 247.959 911.754 247.156C910.989 246.353 909.897 245.952 908.478 245.952C906.892 245.952 905.632 246.428 904.698 247.38C903.784 248.313 903.326 249.611 903.326 251.272V259H901.338V244.272H903.242V246.988C903.784 246.092 904.53 245.401 905.482 244.916C906.453 244.412 907.573 244.16 908.842 244.16ZM933.978 244.272V257.208C933.978 259.709 933.362 261.557 932.13 262.752C930.917 263.965 929.078 264.572 926.614 264.572C925.252 264.572 923.954 264.367 922.722 263.956C921.509 263.564 920.52 263.013 919.754 262.304L920.762 260.792C921.472 261.427 922.33 261.921 923.338 262.276C924.365 262.631 925.438 262.808 926.558 262.808C928.425 262.808 929.797 262.369 930.674 261.492C931.552 260.633 931.99 259.289 931.99 257.46V255.584C931.374 256.517 930.562 257.227 929.554 257.712C928.565 258.197 927.464 258.44 926.25 258.44C924.869 258.44 923.609 258.141 922.47 257.544C921.35 256.928 920.464 256.079 919.81 254.996C919.176 253.895 918.858 252.653 918.858 251.272C918.858 249.891 919.176 248.659 919.81 247.576C920.464 246.493 921.35 245.653 922.47 245.056C923.59 244.459 924.85 244.16 926.25 244.16C927.501 244.16 928.63 244.412 929.638 244.916C930.646 245.42 931.458 246.148 932.074 247.1V244.272H933.978ZM926.446 256.676C927.51 256.676 928.472 256.452 929.33 256.004C930.189 255.537 930.852 254.893 931.318 254.072C931.804 253.251 932.046 252.317 932.046 251.272C932.046 250.227 931.804 249.303 931.318 248.5C930.852 247.679 930.189 247.044 929.33 246.596C928.49 246.129 927.529 245.896 926.446 245.896C925.382 245.896 924.421 246.12 923.562 246.568C922.722 247.016 922.06 247.651 921.574 248.472C921.108 249.293 920.874 250.227 920.874 251.272C920.874 252.317 921.108 253.251 921.574 254.072C922.06 254.893 922.722 255.537 923.562 256.004C924.421 256.452 925.382 256.676 926.446 256.676Z" fill="white"/>
<path d="M111.536 193.864C107.552 193.864 103.688 193.336 99.9441 192.28C96.2481 191.176 93.2721 189.76 91.0161 188.032L94.9761 179.248C97.1361 180.832 99.7041 182.104 102.68 183.064C105.656 184.024 108.632 184.504 111.608 184.504C114.92 184.504 117.368 184.024 118.952 183.064C120.536 182.056 121.328 180.736 121.328 179.104C121.328 177.904 120.848 176.92 119.888 176.152C118.976 175.336 117.776 174.688 116.288 174.208C114.848 173.728 112.88 173.2 110.384 172.624C106.544 171.712 103.4 170.8 100.952 169.888C98.5041 168.976 96.3921 167.512 94.6161 165.496C92.8881 163.48 92.0241 160.792 92.0241 157.432C92.0241 154.504 92.8161 151.864 94.4001 149.512C95.9841 147.112 98.3601 145.216 101.528 143.824C104.744 142.432 108.656 141.736 113.264 141.736C116.48 141.736 119.624 142.12 122.696 142.888C125.768 143.656 128.456 144.76 130.76 146.2L127.16 155.056C122.504 152.416 117.848 151.096 113.192 151.096C109.928 151.096 107.504 151.624 105.92 152.68C104.384 153.736 103.616 155.128 103.616 156.856C103.616 158.584 104.504 159.88 106.28 160.744C108.104 161.56 110.864 162.376 114.56 163.192C118.4 164.104 121.544 165.016 123.992 165.928C126.44 166.84 128.528 168.28 130.256 170.248C132.032 172.216 132.92 174.88 132.92 178.24C132.92 181.12 132.104 183.76 130.472 186.16C128.888 188.512 126.488 190.384 123.272 191.776C120.056 193.168 116.144 193.864 111.536 193.864ZM162.994 153.688C166.594 153.688 169.858 154.528 172.786 156.208C175.762 157.84 178.09 160.168 179.77 163.192C181.45 166.168 182.29 169.648 182.29 173.632C182.29 177.616 181.45 181.12 179.77 184.144C178.09 187.12 175.762 189.448 172.786 191.128C169.858 192.76 166.594 193.576 162.994 193.576C158.05 193.576 154.162 192.016 151.33 188.896V206.968H140.098V154.264H150.826V158.728C153.61 155.368 157.666 153.688 162.994 153.688ZM161.05 184.36C163.93 184.36 166.282 183.4 168.106 181.48C169.978 179.512 170.914 176.896 170.914 173.632C170.914 170.368 169.978 167.776 168.106 165.856C166.282 163.888 163.93 162.904 161.05 162.904C158.17 162.904 155.794 163.888 153.922 165.856C152.098 167.776 151.186 170.368 151.186 173.632C151.186 176.896 152.098 179.512 153.922 181.48C155.794 183.4 158.17 184.36 161.05 184.36ZM200.537 159.376C201.881 157.504 203.681 156.088 205.937 155.128C208.241 154.168 210.881 153.688 213.857 153.688V164.056C212.609 163.96 211.769 163.912 211.337 163.912C208.121 163.912 205.601 164.824 203.777 166.648C201.953 168.424 201.041 171.112 201.041 174.712V193H189.809V154.264H200.537V159.376ZM220.536 154.264H231.768V193H220.536V154.264ZM226.152 148.864C224.088 148.864 222.408 148.264 221.112 147.064C219.816 145.864 219.168 144.376 219.168 142.6C219.168 140.824 219.816 139.336 221.112 138.136C222.408 136.936 224.088 136.336 226.152 136.336C228.216 136.336 229.896 136.912 231.192 138.064C232.488 139.216 233.136 140.656 233.136 142.384C233.136 144.256 232.488 145.816 231.192 147.064C229.896 148.264 228.216 148.864 226.152 148.864ZM265.736 153.688C270.536 153.688 274.4 155.128 277.328 158.008C280.304 160.888 281.792 165.16 281.792 170.824V193H270.56V172.552C270.56 169.48 269.888 167.2 268.544 165.712C267.2 164.176 265.256 163.408 262.712 163.408C259.88 163.408 257.624 164.296 255.944 166.072C254.264 167.8 253.424 170.392 253.424 173.848V193H242.192V154.264H252.92V158.8C254.408 157.168 256.256 155.92 258.464 155.056C260.672 154.144 263.096 153.688 265.736 153.688ZM332.355 154.264V186.52C332.355 193.624 330.507 198.904 326.811 202.36C323.115 205.816 317.715 207.544 310.611 207.544C306.867 207.544 303.315 207.088 299.955 206.176C296.595 205.264 293.811 203.944 291.603 202.216L296.067 194.152C297.699 195.496 299.763 196.552 302.259 197.32C304.755 198.136 307.251 198.544 309.747 198.544C313.635 198.544 316.491 197.656 318.315 195.88C320.187 194.152 321.123 191.512 321.123 187.96V186.304C318.195 189.52 314.115 191.128 308.883 191.128C305.331 191.128 302.067 190.36 299.091 188.824C296.163 187.24 293.835 185.032 292.107 182.2C290.379 179.368 289.515 176.104 289.515 172.408C289.515 168.712 290.379 165.448 292.107 162.616C293.835 159.784 296.163 157.6 299.091 156.064C302.067 154.48 305.331 153.688 308.883 153.688C314.499 153.688 318.771 155.536 321.699 159.232V154.264H332.355ZM311.115 181.912C314.091 181.912 316.515 181.048 318.387 179.32C320.307 177.544 321.267 175.24 321.267 172.408C321.267 169.576 320.307 167.296 318.387 165.568C316.515 163.792 314.091 162.904 311.115 162.904C308.139 162.904 305.691 163.792 303.771 165.568C301.851 167.296 300.891 169.576 300.891 172.408C300.891 175.24 301.851 177.544 303.771 179.32C305.691 181.048 308.139 181.912 311.115 181.912ZM385.808 142.6C390.272 142.6 394.136 143.344 397.4 144.832C400.712 146.32 403.256 148.432 405.032 151.168C406.808 153.904 407.696 157.144 407.696 160.888C407.696 164.584 406.808 167.824 405.032 170.608C403.256 173.344 400.712 175.456 397.4 176.944C394.136 178.384 390.272 179.104 385.808 179.104H375.656V193H363.992V142.6H385.808ZM385.16 169.6C388.664 169.6 391.328 168.856 393.152 167.368C394.976 165.832 395.888 163.672 395.888 160.888C395.888 158.056 394.976 155.896 393.152 154.408C391.328 152.872 388.664 152.104 385.16 152.104H375.656V169.6H385.16ZM415.934 139.576H427.166V193H415.934V139.576ZM453.214 153.688C459.214 153.688 463.822 155.128 467.038 158.008C470.254 160.84 471.862 165.136 471.862 170.896V193H461.35V188.176C459.238 191.776 455.302 193.576 449.542 193.576C446.566 193.576 443.974 193.072 441.766 192.064C439.606 191.056 437.95 189.664 436.798 187.888C435.646 186.112 435.07 184.096 435.07 181.84C435.07 178.24 436.414 175.408 439.102 173.344C441.838 171.28 446.038 170.248 451.702 170.248H460.63C460.63 167.8 459.886 165.928 458.398 164.632C456.91 163.288 454.678 162.616 451.702 162.616C449.638 162.616 447.598 162.952 445.582 163.624C443.614 164.248 441.934 165.112 440.542 166.216L436.51 158.368C438.622 156.88 441.142 155.728 444.07 154.912C447.046 154.096 450.094 153.688 453.214 153.688ZM452.35 186.016C454.27 186.016 455.974 185.584 457.462 184.72C458.95 183.808 460.006 182.488 460.63 180.76V176.8H452.926C448.318 176.8 446.014 178.312 446.014 181.336C446.014 182.776 446.566 183.928 447.67 184.792C448.822 185.608 450.382 186.016 452.35 186.016ZM519.773 154.264L502.277 195.376C500.501 199.84 498.293 202.984 495.653 204.808C493.061 206.632 489.917 207.544 486.221 207.544C484.205 207.544 482.213 207.232 480.245 206.608C478.277 205.984 476.669 205.12 475.421 204.016L479.525 196.024C480.389 196.792 481.373 197.392 482.477 197.824C483.629 198.256 484.757 198.472 485.861 198.472C487.397 198.472 488.645 198.088 489.605 197.32C490.565 196.6 491.429 195.376 492.197 193.648L492.341 193.288L475.565 154.264H487.157L498.029 180.544L508.973 154.264H519.773ZM563.261 154.264V186.52C563.261 193.624 561.413 198.904 557.717 202.36C554.021 205.816 548.621 207.544 541.517 207.544C537.773 207.544 534.221 207.088 530.861 206.176C527.501 205.264 524.717 203.944 522.509 202.216L526.973 194.152C528.605 195.496 530.669 196.552 533.165 197.32C535.661 198.136 538.157 198.544 540.653 198.544C544.541 198.544 547.397 197.656 549.221 195.88C551.093 194.152 552.029 191.512 552.029 187.96V186.304C549.101 189.52 545.021 191.128 539.789 191.128C536.237 191.128 532.973 190.36 529.997 188.824C527.069 187.24 524.741 185.032 523.013 182.2C521.285 179.368 520.421 176.104 520.421 172.408C520.421 168.712 521.285 165.448 523.013 162.616C524.741 159.784 527.069 157.6 529.997 156.064C532.973 154.48 536.237 153.688 539.789 153.688C545.405 153.688 549.677 155.536 552.605 159.232V154.264H563.261ZM542.021 181.912C544.997 181.912 547.421 181.048 549.293 179.32C551.213 177.544 552.173 175.24 552.173 172.408C552.173 169.576 551.213 167.296 549.293 165.568C547.421 163.792 544.997 162.904 542.021 162.904C539.045 162.904 536.597 163.792 534.677 165.568C532.757 167.296 531.797 169.576 531.797 172.408C531.797 175.24 532.757 177.544 534.677 179.32C536.597 181.048 539.045 181.912 542.021 181.912ZM584.443 159.376C585.787 157.504 587.587 156.088 589.843 155.128C592.147 154.168 594.787 153.688 597.763 153.688V164.056C596.515 163.96 595.675 163.912 595.243 163.912C592.027 163.912 589.507 164.824 587.683 166.648C585.859 168.424 584.947 171.112 584.947 174.712V193H573.715V154.264H584.443V159.376ZM622.522 193.576C618.442 193.576 614.77 192.736 611.506 191.056C608.29 189.328 605.77 186.952 603.946 183.928C602.122 180.904 601.21 177.472 601.21 173.632C601.21 169.792 602.122 166.36 603.946 163.336C605.77 160.312 608.29 157.96 611.506 156.28C614.77 154.552 618.442 153.688 622.522 153.688C626.602 153.688 630.25 154.552 633.466 156.28C636.682 157.96 639.202 160.312 641.026 163.336C642.85 166.36 643.762 169.792 643.762 173.632C643.762 177.472 642.85 180.904 641.026 183.928C639.202 186.952 636.682 189.328 633.466 191.056C630.25 192.736 626.602 193.576 622.522 193.576ZM622.522 184.36C625.402 184.36 627.754 183.4 629.578 181.48C631.45 179.512 632.386 176.896 632.386 173.632C632.386 170.368 631.45 167.776 629.578 165.856C627.754 163.888 625.402 162.904 622.522 162.904C619.642 162.904 617.266 163.888 615.394 165.856C613.522 167.776 612.586 170.368 612.586 173.632C612.586 176.896 613.522 179.512 615.394 181.48C617.266 183.4 619.642 184.36 622.522 184.36ZM690.294 154.264V193H679.638V188.392C678.15 190.072 676.374 191.368 674.31 192.28C672.246 193.144 670.014 193.576 667.614 193.576C662.526 193.576 658.494 192.112 655.518 189.184C652.542 186.256 651.054 181.912 651.054 176.152V154.264H662.286V174.496C662.286 180.736 664.902 183.856 670.134 183.856C672.822 183.856 674.982 182.992 676.614 181.264C678.246 179.488 679.062 176.872 679.062 173.416V154.264H690.294ZM724.244 153.688C729.044 153.688 732.908 155.128 735.836 158.008C738.812 160.888 740.3 165.16 740.3 170.824V193H729.068V172.552C729.068 169.48 728.396 167.2 727.052 165.712C725.708 164.176 723.764 163.408 721.22 163.408C718.388 163.408 716.132 164.296 714.452 166.072C712.772 167.8 711.932 170.392 711.932 173.848V193H700.7V154.264H711.428V158.8C712.916 157.168 714.764 155.92 716.972 155.056C719.18 154.144 721.604 153.688 724.244 153.688ZM790.359 139.576V193H779.631V188.536C776.847 191.896 772.815 193.576 767.535 193.576C763.887 193.576 760.575 192.76 757.599 191.128C754.671 189.496 752.367 187.168 750.687 184.144C749.007 181.12 748.167 177.616 748.167 173.632C748.167 169.648 749.007 166.144 750.687 163.12C752.367 160.096 754.671 157.768 757.599 156.136C760.575 154.504 763.887 153.688 767.535 153.688C772.479 153.688 776.343 155.248 779.127 158.368V139.576H790.359ZM769.479 184.36C772.311 184.36 774.663 183.4 776.535 181.48C778.407 179.512 779.343 176.896 779.343 173.632C779.343 170.368 778.407 167.776 776.535 165.856C774.663 163.888 772.311 162.904 769.479 162.904C766.599 162.904 764.223 163.888 762.351 165.856C760.479 167.776 759.543 170.368 759.543 173.632C759.543 176.896 760.479 179.512 762.351 181.48C764.223 183.4 766.599 184.36 769.479 184.36Z" fill="white"/>
<defs>
<linearGradient id="paint0_linear" x1="512" y1="0" x2="696.726" y2="390.576" gradientUnits="userSpaceOnUse">
<stop stop-color="#A521E3"/>
<stop offset="1" stop-color="#E35021" stop-opacity="0.69"/>
</linearGradient>
</defs>
</svg>
