<?xml version="1.0" encoding="UTF-8" standalone="no"?>
<!-- Created with Inkscape (http://www.inkscape.org/) -->

<svg
   xmlns:dc="http://purl.org/dc/elements/1.1/"
   xmlns:cc="http://creativecommons.org/ns#"
   xmlns:rdf="http://www.w3.org/1999/02/22-rdf-syntax-ns#"
   xmlns:svg="http://www.w3.org/2000/svg"
   xmlns="http://www.w3.org/2000/svg"
   xmlns:sodipodi="http://sodipodi.sourceforge.net/DTD/sodipodi-0.dtd"
   xmlns:inkscape="http://www.inkscape.org/namespaces/inkscape"
   width="1024px"
   height="400px"
   viewBox="0 0 1024 400"
   version="1.1"
   id="SVGRoot"
   inkscape:version="0.92.2 (unknown)"
   sodipodi:docname="wip.svg">
  <sodipodi:namedview
     id="base"
     pagecolor="#ffffff"
     bordercolor="#666666"
     borderopacity="1.0"
     inkscape:pageopacity="0.0"
     inkscape:pageshadow="2"
     inkscape:zoom="1.4"
     inkscape:cx="620.54767"
     inkscape:cy="138.68158"
     inkscape:document-units="px"
     inkscape:current-layer="layer4"
     showgrid="false"
     inkscape:window-width="2493"
     inkscape:window-height="1385"
     inkscape:window-x="67"
     inkscape:window-y="27"
     inkscape:window-maximized="1" />
  <defs
     id="defs1366" />
  <metadata
     id="metadata1369">
    <rdf:RDF>
      <cc:Work
         rdf:about="">
        <dc:format>image/svg+xml</dc:format>
        <dc:type
           rdf:resource="http://purl.org/dc/dcmitype/StillImage" />
        <dc:title />
      </cc:Work>
    </rdf:RDF>
  </metadata>
  <g
     inkscape:groupmode="layer"
     id="layer3"
     inkscape:label="bg"
     style="display:inline">
    <rect
       style="fill:#cccccc;fill-opacity:0.98268397"
       id="rect3973"
       width="1148.5714"
       height="480.71429"
       x="-24.285715"
       y="-22.857143" />
  </g>
  <g
     id="layer1"
     inkscape:groupmode="layer"
     inkscape:label="tx">
    <g
       id="g3561"
       transform="matrix(3.6316319,0,0,3.6316319,30.768669,21.441427)">
      <circle
         id="circle2767"
         r="1.2"
         cy="3"
         cx="29.1" />
      <circle
         id="circle2769"
         r="1.2"
         cy="3"
         cx="32.599998" />
      <circle
         id="circle2771"
         r="1.2"
         cy="3"
         cx="36.099998" />
      <circle
         id="circle2773"
         r="1.2"
         cy="3"
         cx="39.5" />
      <circle
         id="circle2775"
         r="1.2"
         cy="3"
         cx="43" />
      <circle
         id="circle2777"
         r="1.2"
         cy="3"
         cx="46.5" />
      <circle
         id="circle2779"
         r="1.2"
         cy="3"
         cx="50" />
      <circle
         id="circle2781"
         r="1.2"
         cy="3"
         cx="53.5" />
      <circle
         id="circle2783"
         r="1.2"
         cy="6.5"
         cx="29.1" />
      <circle
         id="circle2785"
         r="1.2"
         cy="6.5"
         cx="32.599998" />
      <circle
         id="circle2787"
         r="1.2"
         cy="6.5"
         cx="36.099998" />
      <circle
         id="circle2789"
         r="1.2"
         cy="6.5"
         cx="39.5" />
      <circle
         id="circle2791"
         r="1.2"
         cy="6.5"
         cx="43" />
      <circle
         id="circle2793"
         r="1.2"
         cy="6.5"
         cx="46.5" />
      <circle
         id="circle2795"
         r="1.2"
         cy="6.5"
         cx="50" />
      <circle
         id="circle2797"
         r="1.2"
         cy="6.5"
         cx="53.5" />
      <circle
         id="circle2799"
         r="1.2"
         cy="9.8999996"
         cx="29.1" />
      <circle
         id="circle2801"
         r="1.2"
         cy="9.8999996"
         cx="32.599998" />
      <circle
         id="circle2803"
         r="1.2"
         cy="9.8999996"
         cx="36.099998" />
      <circle
         id="circle2805"
         r="1.2"
         cy="9.8999996"
         cx="39.5" />
      <circle
         id="circle2807"
         r="1.2"
         cy="9.8999996"
         cx="43" />
      <circle
         id="circle2809"
         r="1.2"
         cy="9.8999996"
         cx="46.5" />
      <circle
         id="circle2811"
         r="1.2"
         cy="9.8999996"
         cx="50" />
      <circle
         id="circle2813"
         r="1.2"
         cy="9.8999996"
         cx="53.5" />
      <circle
         id="circle2815"
         r="1.2"
         cy="13.4"
         cx="29.1" />
      <circle
         id="circle2817"
         r="1.2"
         cy="13.4"
         cx="32.599998" />
      <circle
         id="circle2819"
         r="1.2"
         cy="13.4"
         cx="36.099998" />
      <circle
         id="circle2821"
         r="1.2"
         cy="13.4"
         cx="39.5" />
      <circle
         id="circle2823"
         r="1.2"
         cy="13.4"
         cx="43" />
      <circle
         id="circle2825"
         r="1.2"
         cy="13.4"
         cx="46.5" />
      <circle
         id="circle2827"
         r="1.2"
         cy="13.4"
         cx="50" />
      <circle
         id="circle2829"
         r="1.2"
         cy="13.4"
         cx="53.5" />
      <circle
         id="circle2831"
         r="1.2"
         cy="16.9"
         cx="29.1" />
      <circle
         id="circle2833"
         r="1.2"
         cy="16.9"
         cx="32.599998"
         style="fill:#ff0000" />
      <circle
         id="circle2835"
         r="1.2"
         cy="16.9"
         cx="36.099998"
         style="fill:#ff0000" />
      <circle
         id="circle2837"
         r="1.2"
         cy="16.9"
         cx="39.5" />
      <circle
         id="circle2839"
         r="1.2"
         cy="16.9"
         cx="43" />
      <circle
         id="circle2841"
         r="1.2"
         cy="16.9"
         cx="46.5"
         style="fill:#ff0000" />
      <circle
         id="circle2843"
         r="1.2"
         cy="16.9"
         cx="50" />
      <circle
         id="circle2845"
         r="1.2"
         cy="16.9"
         cx="53.5" />
      <circle
         id="circle2847"
         r="1.2"
         cy="20.4"
         cx="29.1" />
      <circle
         id="circle2849"
         r="1.2"
         cy="20.4"
         cx="32.599998" />
      <circle
         id="circle2851"
         r="1.2"
         cy="20.4"
         cx="36.099998" />
      <circle
         id="circle2853"
         r="1.2"
         cy="20.4"
         cx="39.5" />
      <circle
         id="circle2855"
         r="1.2"
         cy="20.4"
         cx="43" />
      <circle
         id="circle2857"
         r="1.2"
         cy="20.4"
         cx="46.5" />
      <circle
         id="circle2859"
         r="1.2"
         cy="20.4"
         cx="50" />
      <circle
         id="circle2861"
         r="1.2"
         cy="20.4"
         cx="53.5" />
      <circle
         id="circle2863"
         r="1.2"
         cy="23.9"
         cx="29.1" />
      <circle
         id="circle2865"
         r="1.2"
         cy="23.9"
         cx="32.599998" />
      <circle
         id="circle2867"
         r="1.2"
         cy="23.9"
         cx="36.099998" />
      <circle
         id="circle2869"
         r="1.2"
         cy="23.9"
         cx="39.5" />
      <circle
         id="circle2871"
         r="1.2"
         cy="23.9"
         cx="43" />
      <circle
         id="circle2873"
         r="1.2"
         cy="23.9"
         cx="46.5" />
      <circle
         id="circle2875"
         r="1.2"
         cy="23.9"
         cx="50" />
      <circle
         id="circle2877"
         r="1.2"
         cy="23.9"
         cx="53.5" />
      <circle
         id="circle2879"
         r="1.2"
         cy="23.9"
         cx="57" />
      <circle
         id="circle2881"
         r="1.2"
         cy="27.4"
         cx="29.1" />
      <circle
         id="circle2883"
         r="1.2"
         cy="27.4"
         cx="32.599998" />
      <circle
         id="circle2885"
         r="1.2"
         cy="27.4"
         cx="36.099998" />
      <circle
         id="circle2887"
         r="1.2"
         cy="27.4"
         cx="39.5" />
      <circle
         id="circle2889"
         r="1.2"
         cy="27.4"
         cx="43" />
      <circle
         id="circle2891"
         r="1.2"
         cy="27.4"
         cx="46.5" />
      <circle
         id="circle2893"
         r="1.2"
         cy="27.4"
         cx="50" />
      <circle
         id="circle2895"
         r="1.2"
         cy="27.4"
         cx="53.5" />
      <circle
         id="circle2897"
         r="1.2"
         cy="27.4"
         cx="57" />
      <circle
         id="circle2899"
         r="1.2"
         cy="27.4"
         cx="60.5" />
      <circle
         id="circle2901"
         r="1.2"
         cy="27.4"
         cx="63.900002" />
      <circle
         id="circle2903"
         r="1.2"
         cy="30.799999"
         cx="29.1" />
      <circle
         id="circle2905"
         r="1.2"
         cy="30.799999"
         cx="32.599998" />
      <circle
         id="circle2907"
         r="1.2"
         cy="30.799999"
         cx="36.099998" />
      <circle
         id="circle2909"
         r="1.2"
         cy="30.799999"
         cx="39.5" />
      <circle
         id="circle2911"
         r="1.2"
         cy="30.799999"
         cx="43" />
      <circle
         id="circle2913"
         r="1.2"
         cy="30.799999"
         cx="46.5" />
      <circle
         id="circle2915"
         r="1.2"
         cy="30.799999"
         cx="50" />
      <circle
         id="circle2917"
         r="1.2"
         cy="30.799999"
         cx="53.5" />
      <circle
         id="circle2919"
         r="1.2"
         cy="30.799999"
         cx="57" />
      <circle
         id="circle2921"
         r="1.2"
         cy="30.799999"
         cx="60.5" />
      <circle
         id="circle2923"
         r="1.2"
         cy="30.799999"
         cx="63.900002" />
      <circle
         id="circle2925"
         r="1.2"
         cy="30.799999"
         cx="67.400002" />
      <circle
         id="circle2927"
         r="1.2"
         cy="30.799999"
         cx="70.900002" />
      <circle
         id="circle2929"
         r="1.2"
         cy="30.799999"
         cx="74.400002" />
      <circle
         id="circle2931"
         r="1.2"
         cy="30.799999"
         cx="77.900002" />
      <circle
         id="circle2933"
         r="1.2"
         cy="30.799999"
         cx="81.400002" />
      <circle
         id="circle2935"
         r="1.2"
         cy="30.799999"
         cx="84.800003" />
      <circle
         id="circle2937"
         r="1.2"
         cy="30.799999"
         cx="88.300003" />
      <circle
         id="circle2939"
         r="1.2"
         cy="30.799999"
         cx="91.800003" />
      <circle
         id="circle2941"
         r="1.2"
         cy="34.299999"
         cx="29.1" />
      <circle
         id="circle2943"
         r="1.2"
         cy="34.299999"
         cx="32.599998" />
      <circle
         id="circle2945"
         r="1.2"
         cy="34.299999"
         cx="36.099998" />
      <circle
         id="circle2947"
         r="1.2"
         cy="34.299999"
         cx="39.5" />
      <circle
         id="circle2949"
         r="1.2"
         cy="34.299999"
         cx="43"
         style="fill:#ff0000" />
      <circle
         id="circle2951"
         r="1.2"
         cy="34.299999"
         cx="46.5" />
      <circle
         id="circle2953"
         r="1.2"
         cy="34.299999"
         cx="50" />
      <circle
         id="circle2955"
         r="1.2"
         cy="34.299999"
         cx="53.5" />
      <circle
         id="circle2957"
         r="1.2"
         cy="34.299999"
         cx="57" />
      <circle
         id="circle2959"
         r="1.2"
         cy="34.299999"
         cx="60.5"
         style="fill:#ff0000" />
      <circle
         id="circle2961"
         r="1.2"
         cy="34.299999"
         cx="63.900002" />
      <circle
         id="circle2963"
         r="1.2"
         cy="34.299999"
         cx="67.400002" />
      <circle
         id="circle2965"
         r="1.2"
         cy="34.299999"
         cx="70.900002" />
      <circle
         id="circle2967"
         r="1.2"
         cy="34.299999"
         cx="74.400002" />
      <circle
         id="circle2969"
         r="1.2"
         cy="34.299999"
         cx="77.900002"
         style="fill:#ff0000" />
      <circle
         id="circle2971"
         r="1.2"
         cy="34.299999"
         cx="81.400002"
         style="fill:#ff0000" />
      <circle
         id="circle2973"
         r="1.2"
         cy="34.299999"
         cx="84.800003"
         style="fill:#ff0000" />
      <circle
         id="circle2975"
         r="1.2"
         cy="34.299999"
         cx="88.300003" />
      <circle
         id="circle2977"
         r="1.2"
         cy="34.299999"
         cx="91.800003" />
      <circle
         id="circle2979"
         r="1.2"
         cy="34.299999"
         cx="95.300003" />
      <circle
         id="circle2981"
         r="1.2"
         cy="37.799999"
         cx="29.1" />
      <circle
         id="circle2983"
         r="1.2"
         cy="37.799999"
         cx="32.599998"
         style="fill:#ff0000" />
      <circle
         id="circle2985"
         r="1.2"
         cy="37.799999"
         cx="36.099998" />
      <circle
         id="circle2987"
         r="1.2"
         cy="37.799999"
         cx="39.5" />
      <circle
         id="circle2989"
         r="1.2"
         cy="37.799999"
         cx="43" />
      <circle
         id="circle2991"
         r="1.2"
         cy="37.799999"
         cx="46.5" />
      <circle
         id="circle2993"
         r="1.2"
         cy="37.799999"
         cx="50" />
      <circle
         id="circle2995"
         r="1.2"
         cy="37.799999"
         cx="53.5" />
      <circle
         id="circle2997"
         r="1.2"
         cy="37.799999"
         cx="57" />
      <circle
         id="circle2999"
         r="1.2"
         cy="37.799999"
         cx="60.5" />
      <circle
         id="circle3001"
         r="1.2"
         cy="37.799999"
         cx="63.900002" />
      <circle
         id="circle3003"
         r="1.2"
         cy="37.799999"
         cx="67.400002" />
      <circle
         id="circle3005"
         r="1.2"
         cy="37.799999"
         cx="70.900002" />
      <circle
         id="circle3007"
         r="1.2"
         cy="37.799999"
         cx="74.400002" />
      <circle
         id="circle3009"
         r="1.2"
         cy="37.799999"
         cx="77.900002"
         style="fill:#ff0000" />
      <circle
         id="circle3011"
         r="1.2"
         cy="37.799999"
         cx="81.400002"
         style="fill:#ff0000" />
      <circle
         id="circle3013"
         r="1.2"
         cy="37.799999"
         cx="84.800003"
         style="fill:#ff0000" />
      <circle
         id="circle3015"
         r="1.2"
         cy="37.799999"
         cx="88.300003" />
      <circle
         id="circle3017"
         r="1.2"
         cy="37.799999"
         cx="91.800003" />
      <circle
         id="circle3019"
         r="1.2"
         cy="37.799999"
         cx="95.300003" />
      <circle
         id="circle3021"
         r="1.2"
         cy="41.299999"
         cx="29.1" />
      <circle
         id="circle3023"
         r="1.2"
         cy="41.299999"
         cx="32.599998" />
      <circle
         id="circle3025"
         r="1.2"
         cy="41.299999"
         cx="36.099998" />
      <circle
         id="circle3027"
         r="1.2"
         cy="41.299999"
         cx="39.5" />
      <circle
         id="circle3029"
         r="1.2"
         cy="41.299999"
         cx="43" />
      <circle
         id="circle3031"
         r="1.2"
         cy="41.299999"
         cx="46.5" />
      <circle
         id="circle3033"
         r="1.2"
         cy="41.299999"
         cx="50" />
      <circle
         id="circle3035"
         r="1.2"
         cy="41.299999"
         cx="53.5" />
      <circle
         id="circle3037"
         r="1.2"
         cy="41.299999"
         cx="57" />
      <circle
         id="circle3039"
         r="1.2"
         cy="41.299999"
         cx="60.5" />
      <circle
         id="circle3041"
         r="1.2"
         cy="41.299999"
         cx="63.900002" />
      <circle
         id="circle3043"
         r="1.2"
         cy="41.299999"
         cx="67.400002" />
      <circle
         id="circle3045"
         r="1.2"
         cy="41.299999"
         cx="70.900002" />
      <circle
         id="circle3047"
         r="1.2"
         cy="41.299999"
         cx="74.400002" />
      <circle
         id="circle3049"
         r="1.2"
         cy="41.299999"
         cx="77.900002"
         style="fill:#ff0000" />
      <circle
         id="circle3051"
         r="1.2"
         cy="41.299999"
         cx="81.400002"
         style="fill:#ff0000" />
      <circle
         id="circle3053"
         r="1.2"
         cy="41.299999"
         cx="84.800003"
         style="fill:#ff0000" />
      <circle
         id="circle3055"
         r="1.2"
         cy="41.299999"
         cx="88.300003" />
      <circle
         id="circle3057"
         r="1.2"
         cy="41.299999"
         cx="91.800003" />
      <circle
         id="circle3059"
         r="1.2"
         cy="41.299999"
         cx="95.300003" />
      <circle
         id="circle3061"
         r="1.2"
         cy="44.799999"
         cx="1.2" />
      <circle
         id="circle3063"
         r="1.2"
         cy="44.799999"
         cx="4.6999998" />
      <circle
         id="circle3065"
         r="1.2"
         cy="44.799999"
         cx="8.1999998" />
      <circle
         id="circle3067"
         r="1.2"
         cy="44.799999"
         cx="11.7" />
      <circle
         id="circle3069"
         r="1.2"
         cy="44.799999"
         cx="15.2" />
      <circle
         id="circle3071"
         r="1.2"
         cy="44.799999"
         cx="18.6" />
      <circle
         id="circle3073"
         r="1.2"
         cy="44.799999"
         cx="22.1" />
      <circle
         id="circle3075"
         r="1.2"
         cy="44.799999"
         cx="25.6" />
      <circle
         id="circle3077"
         r="1.2"
         cy="44.799999"
         cx="29.1" />
      <circle
         id="circle3079"
         r="1.2"
         cy="44.799999"
         cx="32.599998" />
      <circle
         id="circle3081"
         r="1.2"
         cy="44.799999"
         cx="36.099998" />
      <circle
         id="circle3083"
         r="1.2"
         cy="44.799999"
         cx="39.5"
         style="fill:#ff0000" />
      <circle
         id="circle3085"
         r="1.2"
         cy="44.799999"
         cx="43" />
      <circle
         id="circle3087"
         r="1.2"
         cy="44.799999"
         cx="46.5" />
      <circle
         id="circle3089"
         r="1.2"
         cy="44.799999"
         cx="50" />
      <circle
         id="circle3091"
         r="1.2"
         cy="44.799999"
         cx="53.5" />
      <circle
         id="circle3093"
         r="1.2"
         cy="44.799999"
         cx="57" />
      <circle
         id="circle3095"
         r="1.2"
         cy="44.799999"
         cx="60.5" />
      <circle
         id="circle3097"
         r="1.2"
         cy="44.799999"
         cx="63.900002" />
      <circle
         id="circle3099"
         r="1.2"
         cy="44.799999"
         cx="67.400002" />
      <circle
         id="circle3101"
         r="1.2"
         cy="44.799999"
         cx="70.900002" />
      <circle
         id="circle3103"
         r="1.2"
         cy="44.799999"
         cx="74.400002" />
      <circle
         id="circle3105"
         r="1.2"
         cy="44.799999"
         cx="77.900002" />
      <circle
         id="circle3107"
         r="1.2"
         cy="44.799999"
         cx="81.400002"
         style="fill:#ff0000" />
      <circle
         id="circle3109"
         r="1.2"
         cy="44.799999"
         cx="84.800003" />
      <circle
         id="circle3111"
         r="1.2"
         cy="44.799999"
         cx="88.300003" />
      <circle
         id="circle3113"
         r="1.2"
         cy="44.799999"
         cx="91.800003" />
      <circle
         id="circle3115"
         r="1.2"
         cy="44.799999"
         cx="95.300003" />
      <circle
         id="circle3117"
         r="1.2"
         cy="48.299999"
         cx="4.6999998" />
      <circle
         id="circle3119"
         r="1.2"
         cy="48.299999"
         cx="8.1999998" />
      <circle
         id="circle3121"
         r="1.2"
         cy="48.299999"
         cx="11.7" />
      <circle
         id="circle3123"
         r="1.2"
         cy="48.299999"
         cx="15.2" />
      <circle
         id="circle3125"
         r="1.2"
         cy="48.299999"
         cx="18.6" />
      <circle
         id="circle3127"
         r="1.2"
         cy="48.299999"
         cx="22.1" />
      <circle
         id="circle3129"
         r="1.2"
         cy="48.299999"
         cx="25.6" />
      <circle
         id="circle3131"
         r="1.2"
         cy="48.299999"
         cx="29.1" />
      <circle
         id="circle3133"
         r="1.2"
         cy="48.299999"
         cx="32.599998" />
      <circle
         id="circle3135"
         r="1.2"
         cy="48.299999"
         cx="36.099998" />
      <circle
         id="circle3137"
         r="1.2"
         cy="48.299999"
         cx="39.5" />
      <circle
         id="circle3139"
         r="1.2"
         cy="48.299999"
         cx="43" />
      <circle
         id="circle3141"
         r="1.2"
         cy="48.299999"
         cx="46.5" />
      <circle
         id="circle3143"
         r="1.2"
         cy="48.299999"
         cx="50" />
      <circle
         id="circle3145"
         r="1.2"
         cy="48.299999"
         cx="53.5" />
      <circle
         id="circle3147"
         r="1.2"
         cy="48.299999"
         cx="57" />
      <circle
         id="circle3149"
         r="1.2"
         cy="48.299999"
         cx="60.5" />
      <circle
         id="circle3151"
         r="1.2"
         cy="48.299999"
         cx="63.900002" />
      <circle
         id="circle3153"
         r="1.2"
         cy="48.299999"
         cx="67.400002" />
      <circle
         id="circle3155"
         r="1.2"
         cy="48.299999"
         cx="70.900002" />
      <circle
         id="circle3157"
         r="1.2"
         cy="48.299999"
         cx="74.400002" />
      <circle
         id="circle3159"
         r="1.2"
         cy="48.299999"
         cx="77.900002"
         style="fill:#ff0000" />
      <circle
         id="circle3161"
         r="1.2"
         cy="48.299999"
         cx="81.400002"
         style="fill:#ff0000" />
      <circle
         id="circle3163"
         r="1.2"
         cy="48.299999"
         cx="84.800003" />
      <circle
         id="circle3165"
         r="1.2"
         cy="48.299999"
         cx="88.300003" />
      <circle
         id="circle3167"
         r="1.2"
         cy="48.299999"
         cx="91.800003" />
      <circle
         id="circle3169"
         r="1.2"
         cy="48.299999"
         cx="95.300003" />
      <circle
         id="circle3171"
         r="1.2"
         cy="51.700001"
         cx="8.1999998" />
      <circle
         id="circle3173"
         r="1.2"
         cy="51.700001"
         cx="11.7" />
      <circle
         id="circle3175"
         r="1.2"
         cy="51.700001"
         cx="15.2" />
      <circle
         id="circle3177"
         r="1.2"
         cy="51.700001"
         cx="18.6" />
      <circle
         id="circle3179"
         r="1.2"
         cy="51.700001"
         cx="22.1" />
      <circle
         id="circle3181"
         r="1.2"
         cy="51.700001"
         cx="25.6" />
      <circle
         id="circle3183"
         r="1.2"
         cy="51.700001"
         cx="29.1" />
      <circle
         id="circle3185"
         r="1.2"
         cy="51.700001"
         cx="32.599998" />
      <circle
         id="circle3187"
         r="1.2"
         cy="51.700001"
         cx="36.099998" />
      <circle
         id="circle3189"
         r="1.2"
         cy="51.700001"
         cx="39.5" />
      <circle
         id="circle3191"
         r="1.2"
         cy="51.700001"
         cx="43" />
      <circle
         id="circle3193"
         r="1.2"
         cy="51.700001"
         cx="46.5" />
      <circle
         id="circle3195"
         r="1.2"
         cy="51.700001"
         cx="50" />
      <circle
         id="circle3197"
         r="1.2"
         cy="51.700001"
         cx="53.5" />
      <circle
         id="circle3199"
         r="1.2"
         cy="51.700001"
         cx="57" />
      <circle
         id="circle3201"
         r="1.2"
         cy="51.700001"
         cx="60.5" />
      <circle
         id="circle3203"
         r="1.2"
         cy="51.700001"
         cx="63.900002" />
      <circle
         id="circle3205"
         r="1.2"
         cy="51.700001"
         cx="67.400002" />
      <circle
         id="circle3207"
         r="1.2"
         cy="51.700001"
         cx="70.900002" />
      <circle
         id="circle3209"
         r="1.2"
         cy="51.700001"
         cx="74.400002"
         style="fill:#ff0000" />
      <circle
         id="circle3211"
         r="1.2"
         cy="51.700001"
         cx="77.900002" />
      <circle
         id="circle3213"
         r="1.2"
         cy="51.700001"
         cx="81.400002"
         style="fill:#ff0000" />
      <circle
         id="circle3215"
         r="1.2"
         cy="51.700001"
         cx="84.800003"
         style="fill:#ff0000" />
      <circle
         id="circle3217"
         r="1.2"
         cy="51.700001"
         cx="88.300003" />
      <circle
         id="circle3219"
         r="1.2"
         cy="51.700001"
         cx="91.800003" />
      <circle
         id="circle3221"
         r="1.2"
         cy="51.700001"
         cx="95.300003" />
      <circle
         id="circle3223"
         r="1.2"
         cy="51.700001"
         cx="98.800003" />
      <circle
         id="circle3225"
         r="1.2"
         cy="55.200001"
         cx="11.7" />
      <circle
         id="circle3227"
         r="1.2"
         cy="55.200001"
         cx="15.2" />
      <circle
         id="circle3229"
         r="1.2"
         cy="55.200001"
         cx="18.6" />
      <circle
         id="circle3231"
         r="1.2"
         cy="55.200001"
         cx="22.1" />
      <circle
         id="circle3233"
         r="1.2"
         cy="55.200001"
         cx="25.6" />
      <circle
         id="circle3235"
         r="1.2"
         cy="55.200001"
         cx="29.1" />
      <circle
         id="circle3237"
         r="1.2"
         cy="55.200001"
         cx="32.599998" />
      <circle
         id="circle3239"
         r="1.2"
         cy="55.200001"
         cx="36.099998" />
      <circle
         id="circle3241"
         r="1.2"
         cy="55.200001"
         cx="39.5" />
      <circle
         id="circle3243"
         r="1.2"
         cy="55.200001"
         cx="43" />
      <circle
         id="circle3245"
         r="1.2"
         cy="55.200001"
         cx="46.5" />
      <circle
         id="circle3247"
         r="1.2"
         cy="55.200001"
         cx="50"
         style="fill:#ff0000" />
      <circle
         id="circle3249"
         r="1.2"
         cy="55.200001"
         cx="53.5"
         style="fill:#ff0000" />
      <circle
         id="circle3251"
         r="1.2"
         cy="55.200001"
         cx="57" />
      <circle
         id="circle3253"
         r="1.2"
         cy="55.200001"
         cx="60.5" />
      <circle
         id="circle3255"
         r="1.2"
         cy="55.200001"
         cx="63.900002" />
      <circle
         id="circle3257"
         r="1.2"
         cy="55.200001"
         cx="67.400002"
         style="fill:#ff0000" />
      <circle
         id="circle3259"
         r="1.2"
         cy="55.200001"
         cx="70.900002"
         style="fill:#ff0000" />
      <circle
         id="circle3261"
         r="1.2"
         cy="55.200001"
         cx="74.400002" />
      <circle
         id="circle3263"
         r="1.2"
         cy="55.200001"
         cx="77.900002" />
      <circle
         id="circle3265"
         r="1.2"
         cy="55.200001"
         cx="81.400002" />
      <circle
         id="circle3267"
         r="1.2"
         cy="55.200001"
         cx="84.800003"
         style="fill:#ff0000" />
      <circle
         id="circle3269"
         r="1.2"
         cy="55.200001"
         cx="88.300003" />
      <circle
         id="circle3271"
         r="1.2"
         cy="55.200001"
         cx="91.800003" />
      <circle
         id="circle3273"
         r="1.2"
         cy="55.200001"
         cx="95.300003" />
      <circle
         id="circle3275"
         r="1.2"
         cy="55.200001"
         cx="98.800003" />
      <circle
         id="circle3277"
         r="1.2"
         cy="58.700001"
         cx="15.2" />
      <circle
         id="circle3279"
         r="1.2"
         cy="58.700001"
         cx="18.6" />
      <circle
         id="circle3281"
         r="1.2"
         cy="58.700001"
         cx="22.1"
         style="fill:#ff0000" />
      <circle
         id="circle3283"
         r="1.2"
         cy="58.700001"
         cx="25.6" />
      <circle
         id="circle3285"
         r="1.2"
         cy="58.700001"
         cx="29.1" />
      <circle
         id="circle3287"
         r="1.2"
         cy="58.700001"
         cx="32.599998" />
      <circle
         id="circle3289"
         r="1.2"
         cy="58.700001"
         cx="36.099998" />
      <circle
         id="circle3291"
         r="1.2"
         cy="58.700001"
         cx="39.5" />
      <circle
         id="circle3293"
         r="1.2"
         cy="58.700001"
         cx="43" />
      <circle
         id="circle3295"
         r="1.2"
         cy="58.700001"
         cx="46.5" />
      <circle
         id="circle3297"
         r="1.2"
         cy="58.700001"
         cx="50" />
      <circle
         id="circle3299"
         r="1.2"
         cy="58.700001"
         cx="53.5" />
      <circle
         id="circle3301"
         r="1.2"
         cy="58.700001"
         cx="57" />
      <circle
         id="circle3303"
         r="1.2"
         cy="58.700001"
         cx="60.5" />
      <circle
         id="circle3305"
         r="1.2"
         cy="58.700001"
         cx="63.900002" />
      <circle
         id="circle3307"
         r="1.2"
         cy="58.700001"
         cx="67.400002"
         style="fill:#ff0000" />
      <circle
         id="circle3309"
         r="1.2"
         cy="58.700001"
         cx="70.900002"
         style="fill:#ff0000" />
      <circle
         id="circle3311"
         r="1.2"
         cy="58.700001"
         cx="74.400002" />
      <circle
         id="circle3313"
         r="1.2"
         cy="58.700001"
         cx="77.900002" />
      <circle
         id="circle3315"
         r="1.2"
         cy="58.700001"
         cx="81.400002" />
      <circle
         id="circle3317"
         r="1.2"
         cy="58.700001"
         cx="84.800003"
         style="fill:#ff0000" />
      <circle
         id="circle3319"
         r="1.2"
         cy="58.700001"
         cx="88.300003"
         style="fill:#ff0000" />
      <circle
         id="circle3321"
         r="1.2"
         cy="58.700001"
         cx="91.800003" />
      <circle
         id="circle3323"
         r="1.2"
         cy="58.700001"
         cx="95.300003" />
      <circle
         id="circle3325"
         r="1.2"
         cy="58.700001"
         cx="98.800003" />
      <circle
         id="circle3327"
         r="1.2"
         cy="62.200001"
         cx="18.6" />
      <circle
         id="circle3329"
         r="1.2"
         cy="62.200001"
         cx="22.1"
         style="fill:#ff0000" />
      <circle
         id="circle3331"
         r="1.2"
         cy="62.200001"
         cx="25.6" />
      <circle
         id="circle3333"
         r="1.2"
         cy="62.200001"
         cx="29.1" />
      <circle
         id="circle3335"
         r="1.2"
         cy="62.200001"
         cx="32.599998" />
      <circle
         id="circle3337"
         r="1.2"
         cy="62.200001"
         cx="36.099998" />
      <circle
         id="circle3339"
         r="1.2"
         cy="62.200001"
         cx="39.5" />
      <circle
         id="circle3341"
         r="1.2"
         cy="62.200001"
         cx="43" />
      <circle
         id="circle3343"
         r="1.2"
         cy="62.200001"
         cx="46.5" />
      <circle
         id="circle3345"
         r="1.2"
         cy="62.200001"
         cx="50" />
      <circle
         id="circle3347"
         r="1.2"
         cy="62.200001"
         cx="53.5" />
      <circle
         id="circle3349"
         r="1.2"
         cy="62.200001"
         cx="57" />
      <circle
         id="circle3351"
         r="1.2"
         cy="62.200001"
         cx="60.5" />
      <circle
         id="circle3353"
         r="1.2"
         cy="62.200001"
         cx="63.900002" />
      <circle
         id="circle3355"
         r="1.2"
         cy="62.200001"
         cx="67.400002"
         style="fill:#ff0000" />
      <circle
         id="circle3357"
         r="1.2"
         cy="62.200001"
         cx="70.900002"
         style="fill:#ff0000" />
      <circle
         id="circle3359"
         r="1.2"
         cy="62.200001"
         cx="74.400002" />
      <circle
         id="circle3361"
         r="1.2"
         cy="62.200001"
         cx="77.900002" />
      <circle
         id="circle3363"
         r="1.2"
         cy="62.200001"
         cx="81.400002" />
      <circle
         id="circle3365"
         r="1.2"
         cy="62.200001"
         cx="84.800003"
         style="fill:#ff0000" />
      <circle
         id="circle3367"
         r="1.2"
         cy="62.200001"
         cx="88.300003"
         style="fill:#ff0000" />
      <circle
         id="circle3369"
         r="1.2"
         cy="62.200001"
         cx="91.800003"
         style="fill:#ff0000" />
      <circle
         id="circle3371"
         r="1.2"
         cy="62.200001"
         cx="95.300003" />
      <circle
         id="circle3373"
         r="1.2"
         cy="62.200001"
         cx="98.800003" />
      <circle
         id="circle3375"
         r="1.2"
         cy="65.699997"
         cx="18.6" />
      <circle
         id="circle3377"
         r="1.2"
         cy="65.699997"
         cx="22.1" />
      <circle
         id="circle3379"
         r="1.2"
         cy="65.699997"
         cx="25.6" />
      <circle
         id="circle3381"
         r="1.2"
         cy="65.699997"
         cx="29.1" />
      <circle
         id="circle3383"
         r="1.2"
         cy="65.699997"
         cx="32.599998" />
      <circle
         id="circle3385"
         r="1.2"
         cy="65.699997"
         cx="36.099998" />
      <circle
         id="circle3387"
         r="1.2"
         cy="65.699997"
         cx="39.5" />
      <circle
         id="circle3389"
         r="1.2"
         cy="65.699997"
         cx="43" />
      <circle
         id="circle3391"
         r="1.2"
         cy="65.699997"
         cx="46.5" />
      <circle
         id="circle3393"
         r="1.2"
         cy="65.699997"
         cx="50" />
      <circle
         id="circle3395"
         r="1.2"
         cy="65.699997"
         cx="53.5" />
      <circle
         id="circle3397"
         r="1.2"
         cy="65.699997"
         cx="57" />
      <circle
         id="circle3399"
         r="1.2"
         cy="65.699997"
         cx="60.5" />
      <circle
         id="circle3401"
         r="1.2"
         cy="65.699997"
         cx="63.900002" />
      <circle
         id="circle3403"
         r="1.2"
         cy="65.699997"
         cx="67.400002" />
      <circle
         id="circle3405"
         r="1.2"
         cy="65.699997"
         cx="70.900002" />
      <circle
         id="circle3407"
         r="1.2"
         cy="65.699997"
         cx="74.400002" />
      <circle
         id="circle3409"
         r="1.2"
         cy="65.699997"
         cx="77.900002" />
      <circle
         id="circle3411"
         r="1.2"
         cy="65.699997"
         cx="81.400002" />
      <circle
         id="circle3413"
         r="1.2"
         cy="65.699997"
         cx="84.800003" />
      <circle
         id="circle3415"
         r="1.2"
         cy="65.699997"
         cx="88.300003"
         style="fill:#ff0000" />
      <circle
         id="circle3417"
         r="1.2"
         cy="65.699997"
         cx="91.800003"
         style="fill:#ff0000" />
      <circle
         id="circle3419"
         r="1.2"
         cy="65.699997"
         cx="95.300003" />
      <circle
         id="circle3421"
         r="1.2"
         cy="69.199997"
         cx="22.1" />
      <circle
         id="circle3423"
         r="1.2"
         cy="69.199997"
         cx="25.6" />
      <circle
         id="circle3425"
         r="1.2"
         cy="69.199997"
         cx="29.1" />
      <circle
         id="circle3427"
         r="1.2"
         cy="69.199997"
         cx="43" />
      <circle
         id="circle3429"
         r="1.2"
         cy="69.199997"
         cx="46.5" />
      <circle
         id="circle3431"
         r="1.2"
         cy="69.199997"
         cx="50" />
      <circle
         id="circle3433"
         r="1.2"
         cy="69.199997"
         cx="53.5" />
      <circle
         id="circle3435"
         r="1.2"
         cy="69.199997"
         cx="57" />
      <circle
         id="circle3437"
         r="1.2"
         cy="69.199997"
         cx="60.5" />
      <circle
         id="circle3439"
         r="1.2"
         cy="69.199997"
         cx="63.900002" />
      <circle
         id="circle3441"
         r="1.2"
         cy="69.199997"
         cx="67.400002" />
      <circle
         id="circle3443"
         r="1.2"
         cy="69.199997"
         cx="70.900002" />
      <circle
         id="circle3445"
         r="1.2"
         cy="69.199997"
         cx="74.400002" />
      <circle
         id="circle3447"
         r="1.2"
         cy="69.199997"
         cx="77.900002" />
      <circle
         id="circle3449"
         r="1.2"
         cy="69.199997"
         cx="81.400002" />
      <circle
         id="circle3451"
         r="1.2"
         cy="69.199997"
         cx="84.800003" />
      <circle
         id="circle3453"
         r="1.2"
         cy="69.199997"
         cx="88.300003" />
      <circle
         id="circle3455"
         r="1.2"
         cy="72.599998"
         cx="46.5"
         style="fill:#ff0000" />
      <circle
         id="circle3457"
         r="1.2"
         cy="72.599998"
         cx="50" />
      <circle
         id="circle3459"
         r="1.2"
         cy="72.599998"
         cx="53.5" />
      <circle
         id="circle3461"
         r="1.2"
         cy="72.599998"
         cx="57" />
      <circle
         id="circle3463"
         r="1.2"
         cy="72.599998"
         cx="60.5" />
      <circle
         id="circle3465"
         r="1.2"
         cy="72.599998"
         cx="63.900002" />
      <circle
         id="circle3467"
         r="1.2"
         cy="72.599998"
         cx="67.400002" />
      <circle
         id="circle3469"
         r="1.2"
         cy="72.599998"
         cx="70.900002" />
      <circle
         id="circle3471"
         r="1.2"
         cy="72.599998"
         cx="74.400002" />
      <circle
         id="circle3473"
         r="1.2"
         cy="72.599998"
         cx="77.900002" />
      <circle
         id="circle3475"
         r="1.2"
         cy="72.599998"
         cx="81.400002" />
      <circle
         id="circle3477"
         r="1.2"
         cy="72.599998"
         cx="84.800003" />
      <circle
         id="circle3479"
         r="1.2"
         cy="76.099998"
         cx="50" />
      <circle
         id="circle3481"
         r="1.2"
         cy="76.099998"
         cx="53.5" />
      <circle
         id="circle3483"
         r="1.2"
         cy="76.099998"
         cx="57" />
      <circle
         id="circle3485"
         r="1.2"
         cy="76.099998"
         cx="60.5" />
      <circle
         id="circle3487"
         r="1.2"
         cy="76.099998"
         cx="63.900002" />
      <circle
         id="circle3489"
         r="1.2"
         cy="76.099998"
         cx="67.400002" />
      <circle
         id="circle3491"
         r="1.2"
         cy="76.099998"
         cx="70.900002" />
      <circle
         id="circle3493"
         r="1.2"
         cy="76.099998"
         cx="74.400002" />
      <circle
         id="circle3495"
         r="1.2"
         cy="76.099998"
         cx="77.900002" />
      <circle
         id="circle3497"
         r="1.2"
         cy="79.599998"
         cx="50" />
      <circle
         id="circle3499"
         r="1.2"
         cy="79.599998"
         cx="53.5" />
      <circle
         id="circle3501"
         r="1.2"
         cy="79.599998"
         cx="57" />
      <circle
         id="circle3503"
         r="1.2"
         cy="79.599998"
         cx="60.5" />
      <circle
         id="circle3505"
         r="1.2"
         cy="79.599998"
         cx="63.900002" />
      <circle
         id="circle3507"
         r="1.2"
         cy="79.599998"
         cx="67.400002" />
      <circle
         id="circle3509"
         r="1.2"
         cy="79.599998"
         cx="70.900002" />
      <circle
         id="circle3511"
         r="1.2"
         cy="79.599998"
         cx="74.400002" />
      <circle
         id="circle3513"
         r="1.2"
         cy="83.099998"
         cx="53.5" />
      <circle
         id="circle3515"
         r="1.2"
         cy="83.099998"
         cx="57" />
      <circle
         id="circle3517"
         r="1.2"
         cy="83.099998"
         cx="60.5" />
      <circle
         id="circle3519"
         r="1.2"
         cy="83.099998"
         cx="63.900002" />
      <circle
         id="circle3521"
         r="1.2"
         cy="83.099998"
         cx="67.400002" />
      <circle
         id="circle3523"
         r="1.2"
         cy="83.099998"
         cx="70.900002" />
      <circle
         id="circle3525"
         r="1.2"
         cy="86.599998"
         cx="57" />
      <circle
         id="circle3527"
         r="1.2"
         cy="86.599998"
         cx="60.5" />
      <circle
         id="circle3529"
         r="1.2"
         cy="86.599998"
         cx="63.900002" />
      <circle
         id="circle3531"
         r="1.2"
         cy="86.599998"
         cx="67.400002" />
      <circle
         id="circle3533"
         r="1.2"
         cy="86.599998"
         cx="70.900002" />
      <circle
         id="circle3535"
         r="1.2"
         cy="90.099998"
         cx="57" />
      <circle
         id="circle3537"
         r="1.2"
         cy="90.099998"
         cx="60.5"
         style="fill:#ff0000" />
      <circle
         id="circle3539"
         r="1.2"
         cy="90.099998"
         cx="63.900002" />
      <circle
         id="circle3541"
         r="1.2"
         cy="90.099998"
         cx="67.400002" />
      <circle
         id="circle3543"
         r="1.2"
         cy="90.099998"
         cx="70.900002" />
      <circle
         id="circle3545"
         r="1.2"
         cy="93.5"
         cx="57" />
      <circle
         id="circle3547"
         r="1.2"
         cy="93.5"
         cx="60.5" />
      <circle
         id="circle3549"
         r="1.2"
         cy="93.5"
         cx="63.900002" />
      <circle
         id="circle3551"
         r="1.2"
         cy="93.5"
         cx="67.400002" />
      <circle
         id="circle3553"
         r="1.2"
         cy="93.5"
         cx="70.900002" />
      <circle
         id="circle3555"
         r="1.2"
         cy="97"
         cx="67.400002" />
      <circle
         id="circle3557"
         r="1.2"
         cy="97"
         cx="70.900002" />
      <circle
         id="circle3559"
         r="1.2"
         cy="97"
         cx="74.400002" />
    </g>
  </g>
  <g
     inkscape:groupmode="layer"
     id="layer4"
     inkscape:label="text">
    <text
       xml:space="preserve"
       style="font-style:normal;font-variant:normal;font-weight:normal;font-stretch:normal;font-size:96px;line-height:1.25;font-family:'maven pro';-inkscape-font-specification:'maven pro';text-align:center;letter-spacing:0px;word-spacing:0px;text-anchor:middle;fill:#000000;fill-opacity:1;stroke:none"
       x="698.57849"
       y="202.14287"
       id="text1215"><tspan
         sodipodi:role="line"
         id="tspan1213"
         x="698.57849"
         y="202.14287">Texas Crime</tspan><tspan
         sodipodi:role="line"
         x="698.57849"
         y="322.14285"
         id="tspan1217"> Heatmap</tspan></text>
  </g>
</svg>
